M48
INCH,TZ
T1C0.0157
T2C0.0236
T3C0.0276
T4C0.0315
T5C0.0354
T6C0.0394
T7C0.0433
%
G90
G05
T1
X18000Y-31000
X19149Y-26851
X20000Y-31000
X22000Y-27000
X22802Y-35198
X23566Y-35155
X24232Y-35000
X24232Y-36000
X25000Y-29000
X25988Y-30000
X26274Y-28715
X27000Y-29000
X27000Y-38945
X27000Y-35945
X28000Y-38715
X30000Y-26000
X33715Y-38000
X34000Y-28000
X34000Y-34285
X34798Y-37798
X36000Y-33715
X37000Y-35945
X38000Y-34000
X40000Y-27943
T2
X36213Y-26000
X37000Y-26000
T3
X16000Y-32500
X16000Y-35500
X18000Y-26500
X18000Y-29500
X18000Y-32500
X18000Y-35500
X25000Y-31500
X25000Y-34500
X26500Y-30000
X26500Y-31000
X29500Y-30000
X29500Y-31000
X31000Y-24500
X31000Y-27500
T4
X17000Y-37031
X17000Y-38016
X17000Y-39000
X18260Y-37031
X18260Y-38016
X18260Y-39000
X20504Y-26496
X20504Y-29496
X20504Y-31496
X20504Y-34496
X20504Y-36496
X20504Y-39496
X21504Y-26496
X21504Y-29496
X21504Y-31496
X21504Y-34496
X21504Y-36496
X21504Y-39496
X22504Y-26496
X22504Y-29496
X22504Y-31496
X22504Y-34496
X22504Y-36496
X22504Y-39496
X23504Y-26496
X23504Y-29496
X23504Y-31496
X23504Y-34496
X23504Y-36496
X23504Y-39496
X26998Y-36496
X26998Y-39496
X27000Y-28000
X27000Y-34000
X27998Y-36496
X27998Y-39496
X28000Y-28000
X28378Y-34000
X28998Y-36496
X28998Y-39496
X29000Y-28000
X29998Y-36496
X29998Y-39496
X30998Y-36496
X30998Y-39496
X31000Y-30000
X31000Y-34000
X31998Y-36496
X31998Y-39496
X32378Y-30000
X32378Y-34000
X32998Y-36496
X32998Y-39496
X34998Y-36496
X34998Y-39496
X35000Y-29000
X35000Y-32000
X35000Y-35000
X35998Y-36496
X35998Y-39496
X36000Y-32000
X36000Y-35000
X36378Y-29000
X36998Y-36496
X36998Y-39496
X37000Y-32000
X37000Y-35000
X37998Y-36496
X37998Y-39496
X38000Y-32000
X38000Y-35000
X38998Y-36496
X38998Y-39496
X39000Y-32000
X39000Y-35000
X39998Y-36496
X39998Y-39496
X40000Y-32000
X40000Y-35000
X40998Y-36496
X40998Y-39496
X41000Y-32000
X41000Y-35000
T5
X33000Y-26000
X34000Y-26000
T6
X16000Y-30000
X16000Y-31000
X39000Y-26000
X40000Y-26000
X41000Y-26000
T7
X39000Y-28228
X39000Y-30000
X41559Y-28228
X41559Y-30000
T0
M30
