%TF.GenerationSoftware,KiCad,Pcbnew,(6.0.6-0)*%
%TF.CreationDate,2022-10-19T22:33:39-04:00*%
%TF.ProjectId,Clock Module,436c6f63-6b20-44d6-9f64-756c652e6b69,rev?*%
%TF.SameCoordinates,Original*%
%TF.FileFunction,Copper,L2,Bot*%
%TF.FilePolarity,Positive*%
%FSLAX46Y46*%
G04 Gerber Fmt 4.6, Leading zero omitted, Abs format (unit mm)*
G04 Created by KiCad (PCBNEW (6.0.6-0)) date 2022-10-19 22:33:39*
%MOMM*%
%LPD*%
G01*
G04 APERTURE LIST*
%TA.AperFunction,ComponentPad*%
%ADD10C,1.400000*%
%TD*%
%TA.AperFunction,ComponentPad*%
%ADD11O,1.400000X1.400000*%
%TD*%
%TA.AperFunction,ComponentPad*%
%ADD12R,1.600000X1.600000*%
%TD*%
%TA.AperFunction,ComponentPad*%
%ADD13O,1.600000X1.600000*%
%TD*%
%TA.AperFunction,ComponentPad*%
%ADD14C,1.600000*%
%TD*%
%TA.AperFunction,ComponentPad*%
%ADD15R,1.700000X1.700000*%
%TD*%
%TA.AperFunction,ComponentPad*%
%ADD16O,1.700000X1.700000*%
%TD*%
%TA.AperFunction,ComponentPad*%
%ADD17C,1.440000*%
%TD*%
%TA.AperFunction,ComponentPad*%
%ADD18R,1.800000X1.800000*%
%TD*%
%TA.AperFunction,ComponentPad*%
%ADD19C,1.800000*%
%TD*%
%TA.AperFunction,ComponentPad*%
%ADD20R,1.200000X1.200000*%
%TD*%
%TA.AperFunction,ComponentPad*%
%ADD21C,1.200000*%
%TD*%
%TA.AperFunction,ComponentPad*%
%ADD22C,2.000000*%
%TD*%
%TA.AperFunction,ViaPad*%
%ADD23C,0.800000*%
%TD*%
%TA.AperFunction,Conductor*%
%ADD24C,0.250000*%
%TD*%
G04 APERTURE END LIST*
D10*
%TO.P,R1,1*%
%TO.N,VCC*%
X74930000Y-76200000D03*
D11*
%TO.P,R1,2*%
%TO.N,Net-(R1-Pad2)*%
X67310000Y-76200000D03*
%TD*%
D12*
%TO.P,U6,1*%
%TO.N,Net-(U4-Pad3)*%
X88895000Y-100320000D03*
D13*
%TO.P,U6,2*%
%TO.N,Net-(U4-Pad6)*%
X91435000Y-100320000D03*
%TO.P,U6,3*%
%TO.N,Net-(U4-Pad9)*%
X93975000Y-100320000D03*
%TO.P,U6,4*%
%TO.N,N/C*%
X96515000Y-100320000D03*
%TO.P,U6,5*%
X99055000Y-100320000D03*
%TO.P,U6,6*%
X101595000Y-100320000D03*
%TO.P,U6,7,GND*%
%TO.N,GNDREF*%
X104135000Y-100320000D03*
%TO.P,U6,8*%
%TO.N,N/C*%
X104135000Y-92700000D03*
%TO.P,U6,9*%
X101595000Y-92700000D03*
%TO.P,U6,10*%
X99055000Y-92700000D03*
%TO.P,U6,11*%
X96515000Y-92700000D03*
%TO.P,U6,12*%
X93975000Y-92700000D03*
%TO.P,U6,13*%
X91435000Y-92700000D03*
%TO.P,U6,14,VCC*%
%TO.N,VCC*%
X88895000Y-92700000D03*
%TD*%
D10*
%TO.P,R5,1*%
%TO.N,VCC*%
X40640000Y-82550000D03*
D11*
%TO.P,R5,2*%
%TO.N,Net-(R5-Pad2)*%
X40640000Y-90170000D03*
%TD*%
D12*
%TO.P,C4,1*%
%TO.N,Net-(C4-Pad1)*%
X88900000Y-73660000D03*
D14*
%TO.P,C4,2*%
%TO.N,GNDREF*%
X92400000Y-73660000D03*
%TD*%
D12*
%TO.P,U3,1,GND*%
%TO.N,GNDREF*%
X52080000Y-100320000D03*
D13*
%TO.P,U3,2,TR*%
%TO.N,Net-(R5-Pad2)*%
X54620000Y-100320000D03*
%TO.P,U3,3,Q*%
%TO.N,Net-(U3-Pad3)*%
X57160000Y-100320000D03*
%TO.P,U3,4,R*%
%TO.N,Net-(R6-Pad2)*%
X59700000Y-100320000D03*
%TO.P,U3,5,CV*%
%TO.N,Net-(C5-Pad1)*%
X59700000Y-92700000D03*
%TO.P,U3,6,THR*%
%TO.N,GNDREF*%
X57160000Y-92700000D03*
%TO.P,U3,7,DIS*%
%TO.N,unconnected-(U3-Pad7)*%
X54620000Y-92700000D03*
%TO.P,U3,8,VCC*%
%TO.N,VCC*%
X52080000Y-92700000D03*
%TD*%
D10*
%TO.P,R4,1*%
%TO.N,VCC*%
X45720000Y-74930000D03*
D11*
%TO.P,R4,2*%
%TO.N,Net-(C4-Pad1)*%
X45720000Y-67310000D03*
%TD*%
D15*
%TO.P,J2,1,Pin_1*%
%TO.N,/HLT*%
X99060000Y-66040000D03*
D16*
%TO.P,J2,2,Pin_2*%
%TO.N,/CLK*%
X101600000Y-66040000D03*
%TO.P,J2,3,Pin_3*%
%TO.N,/~{CLK}*%
X104140000Y-66040000D03*
%TD*%
D12*
%TO.P,U2,1,GND*%
%TO.N,GNDREF*%
X52080000Y-87620000D03*
D13*
%TO.P,U2,2,TR*%
%TO.N,Net-(R3-Pad2)*%
X54620000Y-87620000D03*
%TO.P,U2,3,Q*%
%TO.N,Net-(U2-Pad3)*%
X57160000Y-87620000D03*
%TO.P,U2,4,R*%
%TO.N,VCC*%
X59700000Y-87620000D03*
%TO.P,U2,5,CV*%
%TO.N,Net-(C3-Pad1)*%
X59700000Y-80000000D03*
%TO.P,U2,6,THR*%
%TO.N,Net-(C4-Pad1)*%
X57160000Y-80000000D03*
%TO.P,U2,7,DIS*%
X54620000Y-80000000D03*
%TO.P,U2,8,VCC*%
%TO.N,VCC*%
X52080000Y-80000000D03*
%TD*%
D10*
%TO.P,R2,1*%
%TO.N,Net-(R1-Pad2)*%
X67310000Y-78740000D03*
D11*
%TO.P,R2,2*%
%TO.N,Net-(R2-Pad2)*%
X74930000Y-78740000D03*
%TD*%
D12*
%TO.P,U1,1,GND*%
%TO.N,GNDREF*%
X52080000Y-74920000D03*
D13*
%TO.P,U1,2,TR*%
%TO.N,Net-(C2-Pad1)*%
X54620000Y-74920000D03*
%TO.P,U1,3,Q*%
%TO.N,Net-(U1-Pad3)*%
X57160000Y-74920000D03*
%TO.P,U1,4,R*%
%TO.N,VCC*%
X59700000Y-74920000D03*
%TO.P,U1,5,CV*%
%TO.N,Net-(C1-Pad1)*%
X59700000Y-67300000D03*
%TO.P,U1,6,THR*%
%TO.N,Net-(C2-Pad1)*%
X57160000Y-67300000D03*
%TO.P,U1,7,DIS*%
%TO.N,Net-(R1-Pad2)*%
X54620000Y-67300000D03*
%TO.P,U1,8,VCC*%
%TO.N,VCC*%
X52080000Y-67300000D03*
%TD*%
D17*
%TO.P,RV1,1,1*%
%TO.N,unconnected-(RV1-Pad1)*%
X68580000Y-71120000D03*
%TO.P,RV1,2,2*%
%TO.N,Net-(R2-Pad2)*%
X71120000Y-71120000D03*
%TO.P,RV1,3,3*%
%TO.N,Net-(C2-Pad1)*%
X73660000Y-71120000D03*
%TD*%
D15*
%TO.P,J1,1,Pin_1*%
%TO.N,VCC*%
X40640000Y-76200000D03*
D16*
%TO.P,J1,2,Pin_2*%
%TO.N,GNDREF*%
X40640000Y-78740000D03*
%TD*%
D12*
%TO.P,C1,1*%
%TO.N,Net-(C1-Pad1)*%
X68580000Y-86360000D03*
D14*
%TO.P,C1,2*%
%TO.N,GNDREF*%
X72080000Y-86360000D03*
%TD*%
D18*
%TO.P,D1,1,K*%
%TO.N,Net-(D1-Pad1)*%
X83820000Y-66040000D03*
D19*
%TO.P,D1,2,A*%
%TO.N,/CLK*%
X86360000Y-66040000D03*
%TD*%
D12*
%TO.P,U5,1*%
%TO.N,Net-(U3-Pad3)*%
X88900000Y-88900000D03*
D13*
%TO.P,U5,2*%
%TO.N,Net-(U4-Pad4)*%
X91440000Y-88900000D03*
%TO.P,U5,3*%
%TO.N,N/C*%
X93980000Y-88900000D03*
%TO.P,U5,4*%
X96520000Y-88900000D03*
%TO.P,U5,5*%
X99060000Y-88900000D03*
%TO.P,U5,6*%
X101600000Y-88900000D03*
%TO.P,U5,7,GND*%
%TO.N,GNDREF*%
X104140000Y-88900000D03*
%TO.P,U5,8*%
%TO.N,Net-(U4-Pad10)*%
X104140000Y-81280000D03*
%TO.P,U5,9*%
%TO.N,/HLT*%
X101600000Y-81280000D03*
%TO.P,U5,10*%
%TO.N,N/C*%
X99060000Y-81280000D03*
%TO.P,U5,11*%
X96520000Y-81280000D03*
%TO.P,U5,12*%
%TO.N,/~{CLK}*%
X93980000Y-81280000D03*
%TO.P,U5,13*%
%TO.N,/CLK*%
X91440000Y-81280000D03*
%TO.P,U5,14,VCC*%
%TO.N,VCC*%
X88900000Y-81280000D03*
%TD*%
D10*
%TO.P,R6,1*%
%TO.N,VCC*%
X45720000Y-82550000D03*
D11*
%TO.P,R6,2*%
%TO.N,Net-(R6-Pad2)*%
X45720000Y-90170000D03*
%TD*%
D12*
%TO.P,U4,1*%
%TO.N,Net-(U1-Pad3)*%
X68575000Y-100320000D03*
D13*
%TO.P,U4,2*%
%TO.N,Net-(U3-Pad3)*%
X71115000Y-100320000D03*
%TO.P,U4,3*%
%TO.N,Net-(U4-Pad3)*%
X73655000Y-100320000D03*
%TO.P,U4,4*%
%TO.N,Net-(U4-Pad4)*%
X76195000Y-100320000D03*
%TO.P,U4,5*%
%TO.N,Net-(U2-Pad3)*%
X78735000Y-100320000D03*
%TO.P,U4,6*%
%TO.N,Net-(U4-Pad6)*%
X81275000Y-100320000D03*
%TO.P,U4,7,GND*%
%TO.N,GNDREF*%
X83815000Y-100320000D03*
%TO.P,U4,8*%
%TO.N,/CLK*%
X83815000Y-92700000D03*
%TO.P,U4,9*%
%TO.N,Net-(U4-Pad9)*%
X81275000Y-92700000D03*
%TO.P,U4,10*%
%TO.N,Net-(U4-Pad10)*%
X78735000Y-92700000D03*
%TO.P,U4,11*%
%TO.N,N/C*%
X76195000Y-92700000D03*
%TO.P,U4,12*%
X73655000Y-92700000D03*
%TO.P,U4,13*%
X71115000Y-92700000D03*
%TO.P,U4,14,VCC*%
%TO.N,VCC*%
X68575000Y-92700000D03*
%TD*%
D12*
%TO.P,SW1,1,A*%
%TO.N,Net-(R5-Pad2)*%
X43180000Y-99060000D03*
D14*
%TO.P,SW1,2,B*%
%TO.N,GNDREF*%
X43180000Y-96560000D03*
%TO.P,SW1,3,C*%
%TO.N,Net-(R6-Pad2)*%
X43180000Y-94060000D03*
%TO.P,SW1,4*%
%TO.N,N/C*%
X46380000Y-99060000D03*
%TO.P,SW1,5*%
X46380000Y-96560000D03*
%TO.P,SW1,6*%
X46380000Y-94060000D03*
%TD*%
D20*
%TO.P,C2,1*%
%TO.N,Net-(C2-Pad1)*%
X91980000Y-66040000D03*
D21*
%TO.P,C2,2*%
%TO.N,GNDREF*%
X93980000Y-66040000D03*
%TD*%
D12*
%TO.P,C5,1*%
%TO.N,Net-(C5-Pad1)*%
X78740000Y-86360000D03*
D14*
%TO.P,C5,2*%
%TO.N,GNDREF*%
X82240000Y-86360000D03*
%TD*%
D10*
%TO.P,R3,1*%
%TO.N,VCC*%
X63500000Y-87630000D03*
D11*
%TO.P,R3,2*%
%TO.N,Net-(R3-Pad2)*%
X63500000Y-80010000D03*
%TD*%
D22*
%TO.P,SW2,1,1*%
%TO.N,GNDREF*%
X105560000Y-71700000D03*
X99060000Y-71700000D03*
%TO.P,SW2,2,2*%
%TO.N,Net-(R3-Pad2)*%
X105560000Y-76200000D03*
X99060000Y-76200000D03*
%TD*%
D12*
%TO.P,C3,1*%
%TO.N,Net-(C3-Pad1)*%
X78740000Y-76200000D03*
D14*
%TO.P,C3,2*%
%TO.N,GNDREF*%
X82240000Y-76200000D03*
%TD*%
D10*
%TO.P,R7,1*%
%TO.N,Net-(D1-Pad1)*%
X78740000Y-62230000D03*
D11*
%TO.P,R7,2*%
%TO.N,GNDREF*%
X78740000Y-69850000D03*
%TD*%
D23*
%TO.N,Net-(C1-Pad1)*%
X66010497Y-76200000D03*
%TO.N,GNDREF*%
X48637300Y-68202700D03*
%TO.N,Net-(C2-Pad1)*%
X76200000Y-66040000D03*
X55880000Y-68580000D03*
%TO.N,Net-(C4-Pad1)*%
X63500000Y-73660000D03*
X68580000Y-73660000D03*
%TO.N,Net-(C5-Pad1)*%
X68580554Y-91300508D03*
X61549500Y-88900000D03*
X59857517Y-89292918D03*
%TO.N,/CLK*%
X86360000Y-71120000D03*
X86360000Y-87084500D03*
%TO.N,VCC*%
X45720000Y-78740000D03*
X50800000Y-78740000D03*
X96520000Y-86360000D03*
X93980554Y-91300508D03*
X57917700Y-89402300D03*
X91440000Y-85635500D03*
%TO.N,/HLT*%
X101600000Y-70975500D03*
%TO.N,Net-(R1-Pad2)*%
X66734997Y-72935500D03*
%TO.N,Net-(U2-Pad3)*%
X61549500Y-91440000D03*
X68580000Y-98920498D03*
%TO.N,Net-(U3-Pad3)*%
X71120000Y-98335500D03*
%TO.N,Net-(U4-Pad9)*%
X88387700Y-96007700D03*
X85635500Y-96520000D03*
%TD*%
D24*
%TO.N,Net-(C1-Pad1)*%
X66010497Y-71090497D02*
X62220000Y-67300000D01*
X62220000Y-67300000D02*
X59700000Y-67300000D01*
X66010497Y-76200000D02*
X66010497Y-71090497D01*
%TO.N,GNDREF*%
X82361399Y-101773601D02*
X53533601Y-101773601D01*
X52080000Y-71645400D02*
X52080000Y-74920000D01*
X106680000Y-99060000D02*
X106680000Y-91440000D01*
X104135000Y-100320000D02*
X105420000Y-100320000D01*
X42634569Y-79465000D02*
X47179569Y-74920000D01*
X104140000Y-88900000D02*
X106680000Y-86360000D01*
X40640000Y-78740000D02*
X41365000Y-79465000D01*
X102855000Y-101600000D02*
X85095000Y-101600000D01*
X105560000Y-71700000D02*
X99060000Y-71700000D01*
X106680000Y-91440000D02*
X104140000Y-88900000D01*
X92400000Y-73660000D02*
X89860000Y-76200000D01*
X85095000Y-101600000D02*
X83815000Y-100320000D01*
X89860000Y-76200000D02*
X82240000Y-76200000D01*
X104135000Y-100320000D02*
X102855000Y-101600000D01*
X47179569Y-74920000D02*
X52080000Y-74920000D01*
X41365000Y-79465000D02*
X42634569Y-79465000D01*
X99060000Y-71700000D02*
X94360000Y-71700000D01*
X82240000Y-86360000D02*
X82240000Y-76200000D01*
X83815000Y-100320000D02*
X82361399Y-101773601D01*
X48637300Y-68202700D02*
X52080000Y-71645400D01*
X94360000Y-71700000D02*
X92400000Y-73660000D01*
X109220000Y-75360000D02*
X105560000Y-71700000D01*
X109220000Y-76200000D02*
X109220000Y-75360000D01*
X106680000Y-86360000D02*
X106680000Y-78740000D01*
X105420000Y-100320000D02*
X106680000Y-99060000D01*
X53533601Y-101773601D02*
X52080000Y-100320000D01*
X106680000Y-78740000D02*
X109220000Y-76200000D01*
%TO.N,Net-(C2-Pad1)*%
X73660000Y-68580000D02*
X73660000Y-71120000D01*
X55880000Y-68580000D02*
X54620000Y-69840000D01*
X54620000Y-69840000D02*
X54620000Y-74920000D01*
X76200000Y-66040000D02*
X73660000Y-68580000D01*
%TO.N,Net-(C3-Pad1)*%
X77225000Y-77715000D02*
X61985000Y-77715000D01*
X78740000Y-76200000D02*
X77225000Y-77715000D01*
X61985000Y-77715000D02*
X59700000Y-80000000D01*
%TO.N,Net-(C4-Pad1)*%
X88900000Y-73660000D02*
X68580000Y-73660000D01*
X54620000Y-80000000D02*
X57160000Y-80000000D01*
X63500000Y-73660000D02*
X57160000Y-80000000D01*
%TO.N,Net-(C5-Pad1)*%
X73660000Y-91440000D02*
X68580000Y-91440000D01*
X78740000Y-86360000D02*
X73660000Y-91440000D01*
X68580000Y-91440000D02*
X68580000Y-91301062D01*
X59076396Y-88900000D02*
X59469314Y-89292918D01*
X59469314Y-89292918D02*
X59857517Y-89292918D01*
X61549500Y-88900000D02*
X59076396Y-88900000D01*
X68580000Y-91301062D02*
X68580554Y-91300508D01*
%TO.N,/CLK*%
X83815000Y-92700000D02*
X83815000Y-89541396D01*
X86360000Y-86810000D02*
X86360000Y-87084500D01*
X86360000Y-88900000D02*
X86360000Y-86810000D01*
X84456396Y-88900000D02*
X86360000Y-88900000D01*
X84138198Y-89218198D02*
X84456396Y-88900000D01*
X83815000Y-89541396D02*
X84138198Y-89218198D01*
X86360000Y-71120000D02*
X86360000Y-66040000D01*
%TO.N,VCC*%
X91440000Y-85910000D02*
X91440000Y-85635500D01*
X63500000Y-87630000D02*
X68570000Y-92700000D01*
X59700000Y-87620000D02*
X63490000Y-87620000D01*
X96520000Y-86360000D02*
X95395000Y-87485000D01*
X52080000Y-92700000D02*
X53340000Y-91440000D01*
X56073601Y-78546399D02*
X53533601Y-78546399D01*
X52080000Y-92700000D02*
X48260000Y-88880000D01*
X88900000Y-83370000D02*
X91440000Y-85910000D01*
X95395000Y-90025000D02*
X93980000Y-91440000D01*
X53533601Y-78546399D02*
X52080000Y-80000000D01*
X48260000Y-88880000D02*
X48260000Y-78740000D01*
X55880000Y-91440000D02*
X58420000Y-91440000D01*
X68570000Y-92700000D02*
X68575000Y-92700000D01*
X50800000Y-78740000D02*
X45720000Y-78740000D01*
X59700000Y-74920000D02*
X56073601Y-78546399D01*
X53340000Y-91440000D02*
X55880000Y-91440000D01*
X88900000Y-81280000D02*
X88900000Y-83370000D01*
X58420000Y-91440000D02*
X58420000Y-89904600D01*
X93980554Y-91439446D02*
X93980554Y-91300508D01*
X95395000Y-87485000D02*
X95395000Y-90025000D01*
X69700000Y-93825000D02*
X87770000Y-93825000D01*
X93980000Y-91440000D02*
X93980554Y-91439446D01*
X87770000Y-93825000D02*
X88895000Y-92700000D01*
X63490000Y-87620000D02*
X63500000Y-87630000D01*
X58420000Y-89904600D02*
X57917700Y-89402300D01*
X68575000Y-92700000D02*
X69700000Y-93825000D01*
%TO.N,/HLT*%
X99060000Y-66040000D02*
X99060000Y-68580000D01*
X101600000Y-71120000D02*
X101600000Y-70975500D01*
X99060000Y-68580000D02*
X101600000Y-71120000D01*
%TO.N,Net-(R1-Pad2)*%
X67310000Y-73510503D02*
X67310000Y-76200000D01*
X66734997Y-72935500D02*
X67310000Y-73510503D01*
%TO.N,Net-(R3-Pad2)*%
X63500000Y-83820000D02*
X63500000Y-80010000D01*
X97935000Y-82405000D02*
X93980000Y-86360000D01*
X81280000Y-88900000D02*
X79865000Y-87485000D01*
X54620000Y-87620000D02*
X62230000Y-80010000D01*
X99060000Y-76200000D02*
X105560000Y-76200000D01*
X62230000Y-80010000D02*
X63500000Y-80010000D01*
X79865000Y-87485000D02*
X79865000Y-84945000D01*
X83820000Y-86360000D02*
X83820000Y-88900000D01*
X78740000Y-83820000D02*
X63500000Y-83820000D01*
X97935000Y-77325000D02*
X97935000Y-82405000D01*
X79865000Y-84945000D02*
X78740000Y-83820000D01*
X83820000Y-88900000D02*
X81280000Y-88900000D01*
X99060000Y-76200000D02*
X97935000Y-77325000D01*
X93980000Y-86360000D02*
X83820000Y-86360000D01*
%TO.N,Net-(R6-Pad2)*%
X50800000Y-93980000D02*
X49755000Y-92935000D01*
X59700000Y-100320000D02*
X53360000Y-93980000D01*
X44305000Y-92935000D02*
X43180000Y-94060000D01*
X53360000Y-93980000D02*
X50800000Y-93980000D01*
X49755000Y-92935000D02*
X44305000Y-92935000D01*
%TO.N,Net-(U2-Pad3)*%
X68580000Y-99060000D02*
X68580000Y-98920498D01*
X78735000Y-100320000D02*
X77475000Y-99060000D01*
X60980000Y-91440000D02*
X57160000Y-87620000D01*
X77475000Y-99060000D02*
X68580000Y-99060000D01*
X61549500Y-91440000D02*
X60980000Y-91440000D01*
%TO.N,Net-(U3-Pad3)*%
X90020000Y-90020000D02*
X90020000Y-95400000D01*
X90020000Y-95400000D02*
X86810000Y-98610000D01*
X83820000Y-98610000D02*
X71120000Y-98610000D01*
X86810000Y-98610000D02*
X83820000Y-98610000D01*
X71120000Y-98610000D02*
X71120000Y-98335500D01*
X88900000Y-88900000D02*
X90020000Y-90020000D01*
%TO.N,Net-(U4-Pad6)*%
X90175000Y-99060000D02*
X91435000Y-100320000D01*
X82535000Y-99060000D02*
X90175000Y-99060000D01*
X81275000Y-100320000D02*
X82535000Y-99060000D01*
%TO.N,Net-(U4-Pad9)*%
X85635500Y-96520000D02*
X88263604Y-96520000D01*
X88581802Y-96201802D02*
X88387700Y-96007700D01*
X88263604Y-96520000D02*
X88581802Y-96201802D01*
%TD*%
M02*
