%TF.GenerationSoftware,KiCad,Pcbnew,(6.0.6-0)*%
%TF.CreationDate,2022-10-19T22:33:39-04:00*%
%TF.ProjectId,Clock Module,436c6f63-6b20-44d6-9f64-756c652e6b69,rev?*%
%TF.SameCoordinates,Original*%
%TF.FileFunction,Legend,Bot*%
%TF.FilePolarity,Positive*%
%FSLAX46Y46*%
G04 Gerber Fmt 4.6, Leading zero omitted, Abs format (unit mm)*
G04 Created by KiCad (PCBNEW (6.0.6-0)) date 2022-10-19 22:33:39*
%MOMM*%
%LPD*%
G01*
G04 APERTURE LIST*
%ADD10C,0.300000*%
G04 APERTURE END LIST*
D10*
X52112857Y-64178571D02*
X52112857Y-62678571D01*
X50755714Y-64178571D02*
X50755714Y-63392857D01*
X50827142Y-63250000D01*
X50970000Y-63178571D01*
X51255714Y-63178571D01*
X51398571Y-63250000D01*
X50755714Y-64107142D02*
X50898571Y-64178571D01*
X51255714Y-64178571D01*
X51398571Y-64107142D01*
X51470000Y-63964285D01*
X51470000Y-63821428D01*
X51398571Y-63678571D01*
X51255714Y-63607142D01*
X50898571Y-63607142D01*
X50755714Y-63535714D01*
X50041428Y-63178571D02*
X50041428Y-64178571D01*
X50041428Y-63321428D02*
X49970000Y-63250000D01*
X49827142Y-63178571D01*
X49612857Y-63178571D01*
X49470000Y-63250000D01*
X49398571Y-63392857D01*
X49398571Y-64178571D01*
X47112857Y-62678571D02*
X47112857Y-63750000D01*
X47184285Y-63964285D01*
X47327142Y-64107142D01*
X47541428Y-64178571D01*
X47684285Y-64178571D01*
X45755714Y-64178571D02*
X45755714Y-63392857D01*
X45827142Y-63250000D01*
X45970000Y-63178571D01*
X46255714Y-63178571D01*
X46398571Y-63250000D01*
X45755714Y-64107142D02*
X45898571Y-64178571D01*
X46255714Y-64178571D01*
X46398571Y-64107142D01*
X46470000Y-63964285D01*
X46470000Y-63821428D01*
X46398571Y-63678571D01*
X46255714Y-63607142D01*
X45898571Y-63607142D01*
X45755714Y-63535714D01*
X44398571Y-64107142D02*
X44541428Y-64178571D01*
X44827142Y-64178571D01*
X44970000Y-64107142D01*
X45041428Y-64035714D01*
X45112857Y-63892857D01*
X45112857Y-63464285D01*
X45041428Y-63321428D01*
X44970000Y-63250000D01*
X44827142Y-63178571D01*
X44541428Y-63178571D01*
X44398571Y-63250000D01*
X43755714Y-64178571D02*
X43755714Y-62678571D01*
X43612857Y-63607142D02*
X43184285Y-64178571D01*
X43184285Y-63178571D02*
X43755714Y-63750000D01*
X42612857Y-64107142D02*
X42470000Y-64178571D01*
X42184285Y-64178571D01*
X42041428Y-64107142D01*
X41970000Y-63964285D01*
X41970000Y-63892857D01*
X42041428Y-63750000D01*
X42184285Y-63678571D01*
X42398571Y-63678571D01*
X42541428Y-63607142D01*
X42612857Y-63464285D01*
X42612857Y-63392857D01*
X42541428Y-63250000D01*
X42398571Y-63178571D01*
X42184285Y-63178571D01*
X42041428Y-63250000D01*
X41112857Y-64178571D02*
X41255714Y-64107142D01*
X41327142Y-64035714D01*
X41398571Y-63892857D01*
X41398571Y-63464285D01*
X41327142Y-63321428D01*
X41255714Y-63250000D01*
X41112857Y-63178571D01*
X40898571Y-63178571D01*
X40755714Y-63250000D01*
X40684285Y-63321428D01*
X40612857Y-63464285D01*
X40612857Y-63892857D01*
X40684285Y-64035714D01*
X40755714Y-64107142D01*
X40898571Y-64178571D01*
X41112857Y-64178571D01*
X39970000Y-63178571D02*
X39970000Y-64178571D01*
X39970000Y-63321428D02*
X39898571Y-63250000D01*
X39755714Y-63178571D01*
X39541428Y-63178571D01*
X39398571Y-63250000D01*
X39327142Y-63392857D01*
X39327142Y-64178571D01*
M02*
