%TF.GenerationSoftware,KiCad,Pcbnew,(6.0.6-0)*%
%TF.CreationDate,2022-10-19T22:33:39-04:00*%
%TF.ProjectId,Clock Module,436c6f63-6b20-44d6-9f64-756c652e6b69,rev?*%
%TF.SameCoordinates,Original*%
%TF.FileFunction,Soldermask,Top*%
%TF.FilePolarity,Negative*%
%FSLAX46Y46*%
G04 Gerber Fmt 4.6, Leading zero omitted, Abs format (unit mm)*
G04 Created by KiCad (PCBNEW (6.0.6-0)) date 2022-10-19 22:33:39*
%MOMM*%
%LPD*%
G01*
G04 APERTURE LIST*
%ADD10C,1.400000*%
%ADD11O,1.400000X1.400000*%
%ADD12R,1.600000X1.600000*%
%ADD13O,1.600000X1.600000*%
%ADD14C,1.600000*%
%ADD15R,1.700000X1.700000*%
%ADD16O,1.700000X1.700000*%
%ADD17C,1.440000*%
%ADD18R,1.800000X1.800000*%
%ADD19C,1.800000*%
%ADD20R,1.200000X1.200000*%
%ADD21C,1.200000*%
%ADD22C,2.000000*%
G04 APERTURE END LIST*
D10*
%TO.C,R1*%
X74930000Y-76200000D03*
D11*
X67310000Y-76200000D03*
%TD*%
D12*
%TO.C,U6*%
X88895000Y-100320000D03*
D13*
X91435000Y-100320000D03*
X93975000Y-100320000D03*
X96515000Y-100320000D03*
X99055000Y-100320000D03*
X101595000Y-100320000D03*
X104135000Y-100320000D03*
X104135000Y-92700000D03*
X101595000Y-92700000D03*
X99055000Y-92700000D03*
X96515000Y-92700000D03*
X93975000Y-92700000D03*
X91435000Y-92700000D03*
X88895000Y-92700000D03*
%TD*%
D10*
%TO.C,R5*%
X40640000Y-82550000D03*
D11*
X40640000Y-90170000D03*
%TD*%
D12*
%TO.C,C4*%
X88900000Y-73660000D03*
D14*
X92400000Y-73660000D03*
%TD*%
D12*
%TO.C,U3*%
X52080000Y-100320000D03*
D13*
X54620000Y-100320000D03*
X57160000Y-100320000D03*
X59700000Y-100320000D03*
X59700000Y-92700000D03*
X57160000Y-92700000D03*
X54620000Y-92700000D03*
X52080000Y-92700000D03*
%TD*%
D10*
%TO.C,R4*%
X45720000Y-74930000D03*
D11*
X45720000Y-67310000D03*
%TD*%
D15*
%TO.C,J2*%
X99060000Y-66040000D03*
D16*
X101600000Y-66040000D03*
X104140000Y-66040000D03*
%TD*%
D12*
%TO.C,U2*%
X52080000Y-87620000D03*
D13*
X54620000Y-87620000D03*
X57160000Y-87620000D03*
X59700000Y-87620000D03*
X59700000Y-80000000D03*
X57160000Y-80000000D03*
X54620000Y-80000000D03*
X52080000Y-80000000D03*
%TD*%
D10*
%TO.C,R2*%
X67310000Y-78740000D03*
D11*
X74930000Y-78740000D03*
%TD*%
D12*
%TO.C,U1*%
X52080000Y-74920000D03*
D13*
X54620000Y-74920000D03*
X57160000Y-74920000D03*
X59700000Y-74920000D03*
X59700000Y-67300000D03*
X57160000Y-67300000D03*
X54620000Y-67300000D03*
X52080000Y-67300000D03*
%TD*%
D17*
%TO.C,RV1*%
X68580000Y-71120000D03*
X71120000Y-71120000D03*
X73660000Y-71120000D03*
%TD*%
D15*
%TO.C,J1*%
X40640000Y-76200000D03*
D16*
X40640000Y-78740000D03*
%TD*%
D12*
%TO.C,C1*%
X68580000Y-86360000D03*
D14*
X72080000Y-86360000D03*
%TD*%
D18*
%TO.C,D1*%
X83820000Y-66040000D03*
D19*
X86360000Y-66040000D03*
%TD*%
D12*
%TO.C,U5*%
X88900000Y-88900000D03*
D13*
X91440000Y-88900000D03*
X93980000Y-88900000D03*
X96520000Y-88900000D03*
X99060000Y-88900000D03*
X101600000Y-88900000D03*
X104140000Y-88900000D03*
X104140000Y-81280000D03*
X101600000Y-81280000D03*
X99060000Y-81280000D03*
X96520000Y-81280000D03*
X93980000Y-81280000D03*
X91440000Y-81280000D03*
X88900000Y-81280000D03*
%TD*%
D10*
%TO.C,R6*%
X45720000Y-82550000D03*
D11*
X45720000Y-90170000D03*
%TD*%
D12*
%TO.C,U4*%
X68575000Y-100320000D03*
D13*
X71115000Y-100320000D03*
X73655000Y-100320000D03*
X76195000Y-100320000D03*
X78735000Y-100320000D03*
X81275000Y-100320000D03*
X83815000Y-100320000D03*
X83815000Y-92700000D03*
X81275000Y-92700000D03*
X78735000Y-92700000D03*
X76195000Y-92700000D03*
X73655000Y-92700000D03*
X71115000Y-92700000D03*
X68575000Y-92700000D03*
%TD*%
D12*
%TO.C,SW1*%
X43180000Y-99060000D03*
D14*
X43180000Y-96560000D03*
X43180000Y-94060000D03*
X46380000Y-99060000D03*
X46380000Y-96560000D03*
X46380000Y-94060000D03*
%TD*%
D20*
%TO.C,C2*%
X91980000Y-66040000D03*
D21*
X93980000Y-66040000D03*
%TD*%
D12*
%TO.C,C5*%
X78740000Y-86360000D03*
D14*
X82240000Y-86360000D03*
%TD*%
D10*
%TO.C,R3*%
X63500000Y-87630000D03*
D11*
X63500000Y-80010000D03*
%TD*%
D22*
%TO.C,SW2*%
X105560000Y-71700000D03*
X99060000Y-71700000D03*
X105560000Y-76200000D03*
X99060000Y-76200000D03*
%TD*%
D12*
%TO.C,C3*%
X78740000Y-76200000D03*
D14*
X82240000Y-76200000D03*
%TD*%
D10*
%TO.C,R7*%
X78740000Y-62230000D03*
D11*
X78740000Y-69850000D03*
%TD*%
M02*
