%TF.GenerationSoftware,KiCad,Pcbnew,(6.0.6-0)*%
%TF.CreationDate,2022-10-19T22:33:39-04:00*%
%TF.ProjectId,Clock Module,436c6f63-6b20-44d6-9f64-756c652e6b69,rev?*%
%TF.SameCoordinates,Original*%
%TF.FileFunction,Legend,Top*%
%TF.FilePolarity,Positive*%
%FSLAX46Y46*%
G04 Gerber Fmt 4.6, Leading zero omitted, Abs format (unit mm)*
G04 Created by KiCad (PCBNEW (6.0.6-0)) date 2022-10-19 22:33:39*
%MOMM*%
%LPD*%
G01*
G04 APERTURE LIST*
%ADD10C,0.300000*%
%ADD11C,0.100000*%
%ADD12C,0.187500*%
%ADD13C,0.150000*%
%ADD14C,0.120000*%
G04 APERTURE END LIST*
D10*
X39783809Y-61674285D02*
X39688571Y-61769523D01*
X39402857Y-61864761D01*
X39212380Y-61864761D01*
X38926666Y-61769523D01*
X38736190Y-61579047D01*
X38640952Y-61388571D01*
X38545714Y-61007619D01*
X38545714Y-60721904D01*
X38640952Y-60340952D01*
X38736190Y-60150476D01*
X38926666Y-59960000D01*
X39212380Y-59864761D01*
X39402857Y-59864761D01*
X39688571Y-59960000D01*
X39783809Y-60055238D01*
X40926666Y-61864761D02*
X40736190Y-61769523D01*
X40640952Y-61579047D01*
X40640952Y-59864761D01*
X41974285Y-61864761D02*
X41783809Y-61769523D01*
X41688571Y-61674285D01*
X41593333Y-61483809D01*
X41593333Y-60912380D01*
X41688571Y-60721904D01*
X41783809Y-60626666D01*
X41974285Y-60531428D01*
X42260000Y-60531428D01*
X42450476Y-60626666D01*
X42545714Y-60721904D01*
X42640952Y-60912380D01*
X42640952Y-61483809D01*
X42545714Y-61674285D01*
X42450476Y-61769523D01*
X42260000Y-61864761D01*
X41974285Y-61864761D01*
X44355238Y-61769523D02*
X44164761Y-61864761D01*
X43783809Y-61864761D01*
X43593333Y-61769523D01*
X43498095Y-61674285D01*
X43402857Y-61483809D01*
X43402857Y-60912380D01*
X43498095Y-60721904D01*
X43593333Y-60626666D01*
X43783809Y-60531428D01*
X44164761Y-60531428D01*
X44355238Y-60626666D01*
X45212380Y-61864761D02*
X45212380Y-59864761D01*
X45402857Y-61102857D02*
X45974285Y-61864761D01*
X45974285Y-60531428D02*
X45212380Y-61293333D01*
X48355238Y-61864761D02*
X48355238Y-59864761D01*
X49021904Y-61293333D01*
X49688571Y-59864761D01*
X49688571Y-61864761D01*
X50926666Y-61864761D02*
X50736190Y-61769523D01*
X50640952Y-61674285D01*
X50545714Y-61483809D01*
X50545714Y-60912380D01*
X50640952Y-60721904D01*
X50736190Y-60626666D01*
X50926666Y-60531428D01*
X51212380Y-60531428D01*
X51402857Y-60626666D01*
X51498095Y-60721904D01*
X51593333Y-60912380D01*
X51593333Y-61483809D01*
X51498095Y-61674285D01*
X51402857Y-61769523D01*
X51212380Y-61864761D01*
X50926666Y-61864761D01*
X53307619Y-61864761D02*
X53307619Y-59864761D01*
X53307619Y-61769523D02*
X53117142Y-61864761D01*
X52736190Y-61864761D01*
X52545714Y-61769523D01*
X52450476Y-61674285D01*
X52355238Y-61483809D01*
X52355238Y-60912380D01*
X52450476Y-60721904D01*
X52545714Y-60626666D01*
X52736190Y-60531428D01*
X53117142Y-60531428D01*
X53307619Y-60626666D01*
X55117142Y-60531428D02*
X55117142Y-61864761D01*
X54260000Y-60531428D02*
X54260000Y-61579047D01*
X54355238Y-61769523D01*
X54545714Y-61864761D01*
X54831428Y-61864761D01*
X55021904Y-61769523D01*
X55117142Y-61674285D01*
X56355238Y-61864761D02*
X56164761Y-61769523D01*
X56069523Y-61579047D01*
X56069523Y-59864761D01*
X57879047Y-61769523D02*
X57688571Y-61864761D01*
X57307619Y-61864761D01*
X57117142Y-61769523D01*
X57021904Y-61579047D01*
X57021904Y-60817142D01*
X57117142Y-60626666D01*
X57307619Y-60531428D01*
X57688571Y-60531428D01*
X57879047Y-60626666D01*
X57974285Y-60817142D01*
X57974285Y-61007619D01*
X57021904Y-61198095D01*
D11*
X99399285Y-61763571D02*
X98649285Y-61763571D01*
X99006428Y-61763571D02*
X99006428Y-61335000D01*
X99399285Y-61335000D02*
X98649285Y-61335000D01*
X99399285Y-60620714D02*
X99399285Y-60977857D01*
X98649285Y-60977857D01*
X98649285Y-60477857D02*
X98649285Y-60049285D01*
X99399285Y-60263571D02*
X98649285Y-60263571D01*
X103517500Y-62013571D02*
X103517500Y-61263571D01*
X104407857Y-61406428D02*
X104443571Y-61442142D01*
X104479285Y-61549285D01*
X104479285Y-61620714D01*
X104443571Y-61727857D01*
X104372142Y-61799285D01*
X104300714Y-61835000D01*
X104157857Y-61870714D01*
X104050714Y-61870714D01*
X103907857Y-61835000D01*
X103836428Y-61799285D01*
X103765000Y-61727857D01*
X103729285Y-61620714D01*
X103729285Y-61549285D01*
X103765000Y-61442142D01*
X103800714Y-61406428D01*
X103517500Y-61263571D02*
X103517500Y-60656428D01*
X104479285Y-60727857D02*
X104479285Y-61085000D01*
X103729285Y-61085000D01*
X103517500Y-60656428D02*
X103517500Y-59906428D01*
X104479285Y-60477857D02*
X103729285Y-60477857D01*
X104479285Y-60049285D02*
X104050714Y-60370714D01*
X103729285Y-60049285D02*
X104157857Y-60477857D01*
X101867857Y-61406428D02*
X101903571Y-61442142D01*
X101939285Y-61549285D01*
X101939285Y-61620714D01*
X101903571Y-61727857D01*
X101832142Y-61799285D01*
X101760714Y-61835000D01*
X101617857Y-61870714D01*
X101510714Y-61870714D01*
X101367857Y-61835000D01*
X101296428Y-61799285D01*
X101225000Y-61727857D01*
X101189285Y-61620714D01*
X101189285Y-61549285D01*
X101225000Y-61442142D01*
X101260714Y-61406428D01*
X101939285Y-60727857D02*
X101939285Y-61085000D01*
X101189285Y-61085000D01*
X101939285Y-60477857D02*
X101189285Y-60477857D01*
X101939285Y-60049285D02*
X101510714Y-60370714D01*
X101189285Y-60049285D02*
X101617857Y-60477857D01*
D12*
X37528571Y-78365000D02*
X37457142Y-78329285D01*
X37350000Y-78329285D01*
X37242857Y-78365000D01*
X37171428Y-78436428D01*
X37135714Y-78507857D01*
X37100000Y-78650714D01*
X37100000Y-78757857D01*
X37135714Y-78900714D01*
X37171428Y-78972142D01*
X37242857Y-79043571D01*
X37350000Y-79079285D01*
X37421428Y-79079285D01*
X37528571Y-79043571D01*
X37564285Y-79007857D01*
X37564285Y-78757857D01*
X37421428Y-78757857D01*
X37885714Y-79079285D02*
X37885714Y-78329285D01*
X38314285Y-79079285D01*
X38314285Y-78329285D01*
X38671428Y-79079285D02*
X38671428Y-78329285D01*
X38850000Y-78329285D01*
X38957142Y-78365000D01*
X39028571Y-78436428D01*
X39064285Y-78507857D01*
X39100000Y-78650714D01*
X39100000Y-78757857D01*
X39064285Y-78900714D01*
X39028571Y-78972142D01*
X38957142Y-79043571D01*
X38850000Y-79079285D01*
X38671428Y-79079285D01*
X37100000Y-75789285D02*
X37350000Y-76539285D01*
X37600000Y-75789285D01*
X38278571Y-76467857D02*
X38242857Y-76503571D01*
X38135714Y-76539285D01*
X38064285Y-76539285D01*
X37957142Y-76503571D01*
X37885714Y-76432142D01*
X37850000Y-76360714D01*
X37814285Y-76217857D01*
X37814285Y-76110714D01*
X37850000Y-75967857D01*
X37885714Y-75896428D01*
X37957142Y-75825000D01*
X38064285Y-75789285D01*
X38135714Y-75789285D01*
X38242857Y-75825000D01*
X38278571Y-75860714D01*
X39028571Y-76467857D02*
X38992857Y-76503571D01*
X38885714Y-76539285D01*
X38814285Y-76539285D01*
X38707142Y-76503571D01*
X38635714Y-76432142D01*
X38600000Y-76360714D01*
X38564285Y-76217857D01*
X38564285Y-76110714D01*
X38600000Y-75967857D01*
X38635714Y-75896428D01*
X38707142Y-75825000D01*
X38814285Y-75789285D01*
X38885714Y-75789285D01*
X38992857Y-75825000D01*
X39028571Y-75860714D01*
D13*
%TO.C,R1*%
X70953333Y-79192380D02*
X70620000Y-78716190D01*
X70381904Y-79192380D02*
X70381904Y-78192380D01*
X70762857Y-78192380D01*
X70858095Y-78240000D01*
X70905714Y-78287619D01*
X70953333Y-78382857D01*
X70953333Y-78525714D01*
X70905714Y-78620952D01*
X70858095Y-78668571D01*
X70762857Y-78716190D01*
X70381904Y-78716190D01*
X71905714Y-79192380D02*
X71334285Y-79192380D01*
X71620000Y-79192380D02*
X71620000Y-78192380D01*
X71524761Y-78335238D01*
X71429523Y-78430476D01*
X71334285Y-78478095D01*
%TO.C,U6*%
X86017380Y-97271904D02*
X86826904Y-97271904D01*
X86922142Y-97224285D01*
X86969761Y-97176666D01*
X87017380Y-97081428D01*
X87017380Y-96890952D01*
X86969761Y-96795714D01*
X86922142Y-96748095D01*
X86826904Y-96700476D01*
X86017380Y-96700476D01*
X86017380Y-95795714D02*
X86017380Y-95986190D01*
X86065000Y-96081428D01*
X86112619Y-96129047D01*
X86255476Y-96224285D01*
X86445952Y-96271904D01*
X86826904Y-96271904D01*
X86922142Y-96224285D01*
X86969761Y-96176666D01*
X87017380Y-96081428D01*
X87017380Y-95890952D01*
X86969761Y-95795714D01*
X86922142Y-95748095D01*
X86826904Y-95700476D01*
X86588809Y-95700476D01*
X86493571Y-95748095D01*
X86445952Y-95795714D01*
X86398333Y-95890952D01*
X86398333Y-96081428D01*
X86445952Y-96176666D01*
X86493571Y-96224285D01*
X86588809Y-96271904D01*
%TO.C,R5*%
X41092380Y-86526666D02*
X40616190Y-86860000D01*
X41092380Y-87098095D02*
X40092380Y-87098095D01*
X40092380Y-86717142D01*
X40140000Y-86621904D01*
X40187619Y-86574285D01*
X40282857Y-86526666D01*
X40425714Y-86526666D01*
X40520952Y-86574285D01*
X40568571Y-86621904D01*
X40616190Y-86717142D01*
X40616190Y-87098095D01*
X40092380Y-85621904D02*
X40092380Y-86098095D01*
X40568571Y-86145714D01*
X40520952Y-86098095D01*
X40473333Y-86002857D01*
X40473333Y-85764761D01*
X40520952Y-85669523D01*
X40568571Y-85621904D01*
X40663809Y-85574285D01*
X40901904Y-85574285D01*
X40997142Y-85621904D01*
X41044761Y-85669523D01*
X41092380Y-85764761D01*
X41092380Y-86002857D01*
X41044761Y-86098095D01*
X40997142Y-86145714D01*
%TO.C,C4*%
X90483333Y-68767142D02*
X90435714Y-68814761D01*
X90292857Y-68862380D01*
X90197619Y-68862380D01*
X90054761Y-68814761D01*
X89959523Y-68719523D01*
X89911904Y-68624285D01*
X89864285Y-68433809D01*
X89864285Y-68290952D01*
X89911904Y-68100476D01*
X89959523Y-68005238D01*
X90054761Y-67910000D01*
X90197619Y-67862380D01*
X90292857Y-67862380D01*
X90435714Y-67910000D01*
X90483333Y-67957619D01*
X91340476Y-68195714D02*
X91340476Y-68862380D01*
X91102380Y-67814761D02*
X90864285Y-68529047D01*
X91483333Y-68529047D01*
%TO.C,U3*%
X49202380Y-97271904D02*
X50011904Y-97271904D01*
X50107142Y-97224285D01*
X50154761Y-97176666D01*
X50202380Y-97081428D01*
X50202380Y-96890952D01*
X50154761Y-96795714D01*
X50107142Y-96748095D01*
X50011904Y-96700476D01*
X49202380Y-96700476D01*
X49202380Y-96319523D02*
X49202380Y-95700476D01*
X49583333Y-96033809D01*
X49583333Y-95890952D01*
X49630952Y-95795714D01*
X49678571Y-95748095D01*
X49773809Y-95700476D01*
X50011904Y-95700476D01*
X50107142Y-95748095D01*
X50154761Y-95795714D01*
X50202380Y-95890952D01*
X50202380Y-96176666D01*
X50154761Y-96271904D01*
X50107142Y-96319523D01*
%TO.C,R4*%
X46172380Y-71286666D02*
X45696190Y-71620000D01*
X46172380Y-71858095D02*
X45172380Y-71858095D01*
X45172380Y-71477142D01*
X45220000Y-71381904D01*
X45267619Y-71334285D01*
X45362857Y-71286666D01*
X45505714Y-71286666D01*
X45600952Y-71334285D01*
X45648571Y-71381904D01*
X45696190Y-71477142D01*
X45696190Y-71858095D01*
X45505714Y-70429523D02*
X46172380Y-70429523D01*
X45124761Y-70667619D02*
X45839047Y-70905714D01*
X45839047Y-70286666D01*
%TO.C,J2*%
X96182380Y-66373333D02*
X96896666Y-66373333D01*
X97039523Y-66420952D01*
X97134761Y-66516190D01*
X97182380Y-66659047D01*
X97182380Y-66754285D01*
X96277619Y-65944761D02*
X96230000Y-65897142D01*
X96182380Y-65801904D01*
X96182380Y-65563809D01*
X96230000Y-65468571D01*
X96277619Y-65420952D01*
X96372857Y-65373333D01*
X96468095Y-65373333D01*
X96610952Y-65420952D01*
X97182380Y-65992380D01*
X97182380Y-65373333D01*
%TO.C,U2*%
X49202380Y-84571904D02*
X50011904Y-84571904D01*
X50107142Y-84524285D01*
X50154761Y-84476666D01*
X50202380Y-84381428D01*
X50202380Y-84190952D01*
X50154761Y-84095714D01*
X50107142Y-84048095D01*
X50011904Y-84000476D01*
X49202380Y-84000476D01*
X49297619Y-83571904D02*
X49250000Y-83524285D01*
X49202380Y-83429047D01*
X49202380Y-83190952D01*
X49250000Y-83095714D01*
X49297619Y-83048095D01*
X49392857Y-83000476D01*
X49488095Y-83000476D01*
X49630952Y-83048095D01*
X50202380Y-83619523D01*
X50202380Y-83000476D01*
%TO.C,R2*%
X70953333Y-76652380D02*
X70620000Y-76176190D01*
X70381904Y-76652380D02*
X70381904Y-75652380D01*
X70762857Y-75652380D01*
X70858095Y-75700000D01*
X70905714Y-75747619D01*
X70953333Y-75842857D01*
X70953333Y-75985714D01*
X70905714Y-76080952D01*
X70858095Y-76128571D01*
X70762857Y-76176190D01*
X70381904Y-76176190D01*
X71334285Y-75747619D02*
X71381904Y-75700000D01*
X71477142Y-75652380D01*
X71715238Y-75652380D01*
X71810476Y-75700000D01*
X71858095Y-75747619D01*
X71905714Y-75842857D01*
X71905714Y-75938095D01*
X71858095Y-76080952D01*
X71286666Y-76652380D01*
X71905714Y-76652380D01*
%TO.C,U1*%
X49202380Y-71871904D02*
X50011904Y-71871904D01*
X50107142Y-71824285D01*
X50154761Y-71776666D01*
X50202380Y-71681428D01*
X50202380Y-71490952D01*
X50154761Y-71395714D01*
X50107142Y-71348095D01*
X50011904Y-71300476D01*
X49202380Y-71300476D01*
X50202380Y-70300476D02*
X50202380Y-70871904D01*
X50202380Y-70586190D02*
X49202380Y-70586190D01*
X49345238Y-70681428D01*
X49440476Y-70776666D01*
X49488095Y-70871904D01*
%TO.C,RV1*%
X70524761Y-69032380D02*
X70191428Y-68556190D01*
X69953333Y-69032380D02*
X69953333Y-68032380D01*
X70334285Y-68032380D01*
X70429523Y-68080000D01*
X70477142Y-68127619D01*
X70524761Y-68222857D01*
X70524761Y-68365714D01*
X70477142Y-68460952D01*
X70429523Y-68508571D01*
X70334285Y-68556190D01*
X69953333Y-68556190D01*
X70810476Y-68032380D02*
X71143809Y-69032380D01*
X71477142Y-68032380D01*
X72334285Y-69032380D02*
X71762857Y-69032380D01*
X72048571Y-69032380D02*
X72048571Y-68032380D01*
X71953333Y-68175238D01*
X71858095Y-68270476D01*
X71762857Y-68318095D01*
%TO.C,J1*%
X40306666Y-73322380D02*
X40306666Y-74036666D01*
X40259047Y-74179523D01*
X40163809Y-74274761D01*
X40020952Y-74322380D01*
X39925714Y-74322380D01*
X41306666Y-74322380D02*
X40735238Y-74322380D01*
X41020952Y-74322380D02*
X41020952Y-73322380D01*
X40925714Y-73465238D01*
X40830476Y-73560476D01*
X40735238Y-73608095D01*
%TO.C,C1*%
X70163333Y-81467142D02*
X70115714Y-81514761D01*
X69972857Y-81562380D01*
X69877619Y-81562380D01*
X69734761Y-81514761D01*
X69639523Y-81419523D01*
X69591904Y-81324285D01*
X69544285Y-81133809D01*
X69544285Y-80990952D01*
X69591904Y-80800476D01*
X69639523Y-80705238D01*
X69734761Y-80610000D01*
X69877619Y-80562380D01*
X69972857Y-80562380D01*
X70115714Y-80610000D01*
X70163333Y-80657619D01*
X71115714Y-81562380D02*
X70544285Y-81562380D01*
X70830000Y-81562380D02*
X70830000Y-80562380D01*
X70734761Y-80705238D01*
X70639523Y-80800476D01*
X70544285Y-80848095D01*
%TO.C,D1*%
X84351904Y-62532380D02*
X84351904Y-61532380D01*
X84590000Y-61532380D01*
X84732857Y-61580000D01*
X84828095Y-61675238D01*
X84875714Y-61770476D01*
X84923333Y-61960952D01*
X84923333Y-62103809D01*
X84875714Y-62294285D01*
X84828095Y-62389523D01*
X84732857Y-62484761D01*
X84590000Y-62532380D01*
X84351904Y-62532380D01*
X85875714Y-62532380D02*
X85304285Y-62532380D01*
X85590000Y-62532380D02*
X85590000Y-61532380D01*
X85494761Y-61675238D01*
X85399523Y-61770476D01*
X85304285Y-61818095D01*
%TO.C,U5*%
X86022380Y-85851904D02*
X86831904Y-85851904D01*
X86927142Y-85804285D01*
X86974761Y-85756666D01*
X87022380Y-85661428D01*
X87022380Y-85470952D01*
X86974761Y-85375714D01*
X86927142Y-85328095D01*
X86831904Y-85280476D01*
X86022380Y-85280476D01*
X86022380Y-84328095D02*
X86022380Y-84804285D01*
X86498571Y-84851904D01*
X86450952Y-84804285D01*
X86403333Y-84709047D01*
X86403333Y-84470952D01*
X86450952Y-84375714D01*
X86498571Y-84328095D01*
X86593809Y-84280476D01*
X86831904Y-84280476D01*
X86927142Y-84328095D01*
X86974761Y-84375714D01*
X87022380Y-84470952D01*
X87022380Y-84709047D01*
X86974761Y-84804285D01*
X86927142Y-84851904D01*
%TO.C,R6*%
X46172380Y-86526666D02*
X45696190Y-86860000D01*
X46172380Y-87098095D02*
X45172380Y-87098095D01*
X45172380Y-86717142D01*
X45220000Y-86621904D01*
X45267619Y-86574285D01*
X45362857Y-86526666D01*
X45505714Y-86526666D01*
X45600952Y-86574285D01*
X45648571Y-86621904D01*
X45696190Y-86717142D01*
X45696190Y-87098095D01*
X45172380Y-85669523D02*
X45172380Y-85860000D01*
X45220000Y-85955238D01*
X45267619Y-86002857D01*
X45410476Y-86098095D01*
X45600952Y-86145714D01*
X45981904Y-86145714D01*
X46077142Y-86098095D01*
X46124761Y-86050476D01*
X46172380Y-85955238D01*
X46172380Y-85764761D01*
X46124761Y-85669523D01*
X46077142Y-85621904D01*
X45981904Y-85574285D01*
X45743809Y-85574285D01*
X45648571Y-85621904D01*
X45600952Y-85669523D01*
X45553333Y-85764761D01*
X45553333Y-85955238D01*
X45600952Y-86050476D01*
X45648571Y-86098095D01*
X45743809Y-86145714D01*
%TO.C,U4*%
X65697380Y-97271904D02*
X66506904Y-97271904D01*
X66602142Y-97224285D01*
X66649761Y-97176666D01*
X66697380Y-97081428D01*
X66697380Y-96890952D01*
X66649761Y-96795714D01*
X66602142Y-96748095D01*
X66506904Y-96700476D01*
X65697380Y-96700476D01*
X66030714Y-95795714D02*
X66697380Y-95795714D01*
X65649761Y-96033809D02*
X66364047Y-96271904D01*
X66364047Y-95652857D01*
%TO.C,SW1*%
X41934761Y-97893333D02*
X41982380Y-97750476D01*
X41982380Y-97512380D01*
X41934761Y-97417142D01*
X41887142Y-97369523D01*
X41791904Y-97321904D01*
X41696666Y-97321904D01*
X41601428Y-97369523D01*
X41553809Y-97417142D01*
X41506190Y-97512380D01*
X41458571Y-97702857D01*
X41410952Y-97798095D01*
X41363333Y-97845714D01*
X41268095Y-97893333D01*
X41172857Y-97893333D01*
X41077619Y-97845714D01*
X41030000Y-97798095D01*
X40982380Y-97702857D01*
X40982380Y-97464761D01*
X41030000Y-97321904D01*
X40982380Y-96988571D02*
X41982380Y-96750476D01*
X41268095Y-96560000D01*
X41982380Y-96369523D01*
X40982380Y-96131428D01*
X41982380Y-95226666D02*
X41982380Y-95798095D01*
X41982380Y-95512380D02*
X40982380Y-95512380D01*
X41125238Y-95607619D01*
X41220476Y-95702857D01*
X41268095Y-95798095D01*
%TO.C,C2*%
X92813333Y-63147142D02*
X92765714Y-63194761D01*
X92622857Y-63242380D01*
X92527619Y-63242380D01*
X92384761Y-63194761D01*
X92289523Y-63099523D01*
X92241904Y-63004285D01*
X92194285Y-62813809D01*
X92194285Y-62670952D01*
X92241904Y-62480476D01*
X92289523Y-62385238D01*
X92384761Y-62290000D01*
X92527619Y-62242380D01*
X92622857Y-62242380D01*
X92765714Y-62290000D01*
X92813333Y-62337619D01*
X93194285Y-62337619D02*
X93241904Y-62290000D01*
X93337142Y-62242380D01*
X93575238Y-62242380D01*
X93670476Y-62290000D01*
X93718095Y-62337619D01*
X93765714Y-62432857D01*
X93765714Y-62528095D01*
X93718095Y-62670952D01*
X93146666Y-63242380D01*
X93765714Y-63242380D01*
%TO.C,C5*%
X80323333Y-81467142D02*
X80275714Y-81514761D01*
X80132857Y-81562380D01*
X80037619Y-81562380D01*
X79894761Y-81514761D01*
X79799523Y-81419523D01*
X79751904Y-81324285D01*
X79704285Y-81133809D01*
X79704285Y-80990952D01*
X79751904Y-80800476D01*
X79799523Y-80705238D01*
X79894761Y-80610000D01*
X80037619Y-80562380D01*
X80132857Y-80562380D01*
X80275714Y-80610000D01*
X80323333Y-80657619D01*
X81228095Y-80562380D02*
X80751904Y-80562380D01*
X80704285Y-81038571D01*
X80751904Y-80990952D01*
X80847142Y-80943333D01*
X81085238Y-80943333D01*
X81180476Y-80990952D01*
X81228095Y-81038571D01*
X81275714Y-81133809D01*
X81275714Y-81371904D01*
X81228095Y-81467142D01*
X81180476Y-81514761D01*
X81085238Y-81562380D01*
X80847142Y-81562380D01*
X80751904Y-81514761D01*
X80704285Y-81467142D01*
%TO.C,R3*%
X63952380Y-83986666D02*
X63476190Y-84320000D01*
X63952380Y-84558095D02*
X62952380Y-84558095D01*
X62952380Y-84177142D01*
X63000000Y-84081904D01*
X63047619Y-84034285D01*
X63142857Y-83986666D01*
X63285714Y-83986666D01*
X63380952Y-84034285D01*
X63428571Y-84081904D01*
X63476190Y-84177142D01*
X63476190Y-84558095D01*
X62952380Y-83653333D02*
X62952380Y-83034285D01*
X63333333Y-83367619D01*
X63333333Y-83224761D01*
X63380952Y-83129523D01*
X63428571Y-83081904D01*
X63523809Y-83034285D01*
X63761904Y-83034285D01*
X63857142Y-83081904D01*
X63904761Y-83129523D01*
X63952380Y-83224761D01*
X63952380Y-83510476D01*
X63904761Y-83605714D01*
X63857142Y-83653333D01*
%TO.C,SW2*%
X100976666Y-70104761D02*
X101119523Y-70152380D01*
X101357619Y-70152380D01*
X101452857Y-70104761D01*
X101500476Y-70057142D01*
X101548095Y-69961904D01*
X101548095Y-69866666D01*
X101500476Y-69771428D01*
X101452857Y-69723809D01*
X101357619Y-69676190D01*
X101167142Y-69628571D01*
X101071904Y-69580952D01*
X101024285Y-69533333D01*
X100976666Y-69438095D01*
X100976666Y-69342857D01*
X101024285Y-69247619D01*
X101071904Y-69200000D01*
X101167142Y-69152380D01*
X101405238Y-69152380D01*
X101548095Y-69200000D01*
X101881428Y-69152380D02*
X102119523Y-70152380D01*
X102310000Y-69438095D01*
X102500476Y-70152380D01*
X102738571Y-69152380D01*
X103071904Y-69247619D02*
X103119523Y-69200000D01*
X103214761Y-69152380D01*
X103452857Y-69152380D01*
X103548095Y-69200000D01*
X103595714Y-69247619D01*
X103643333Y-69342857D01*
X103643333Y-69438095D01*
X103595714Y-69580952D01*
X103024285Y-70152380D01*
X103643333Y-70152380D01*
%TO.C,C3*%
X80323333Y-71307142D02*
X80275714Y-71354761D01*
X80132857Y-71402380D01*
X80037619Y-71402380D01*
X79894761Y-71354761D01*
X79799523Y-71259523D01*
X79751904Y-71164285D01*
X79704285Y-70973809D01*
X79704285Y-70830952D01*
X79751904Y-70640476D01*
X79799523Y-70545238D01*
X79894761Y-70450000D01*
X80037619Y-70402380D01*
X80132857Y-70402380D01*
X80275714Y-70450000D01*
X80323333Y-70497619D01*
X80656666Y-70402380D02*
X81275714Y-70402380D01*
X80942380Y-70783333D01*
X81085238Y-70783333D01*
X81180476Y-70830952D01*
X81228095Y-70878571D01*
X81275714Y-70973809D01*
X81275714Y-71211904D01*
X81228095Y-71307142D01*
X81180476Y-71354761D01*
X81085238Y-71402380D01*
X80799523Y-71402380D01*
X80704285Y-71354761D01*
X80656666Y-71307142D01*
%TO.C,R7*%
X79192380Y-66206666D02*
X78716190Y-66540000D01*
X79192380Y-66778095D02*
X78192380Y-66778095D01*
X78192380Y-66397142D01*
X78240000Y-66301904D01*
X78287619Y-66254285D01*
X78382857Y-66206666D01*
X78525714Y-66206666D01*
X78620952Y-66254285D01*
X78668571Y-66301904D01*
X78716190Y-66397142D01*
X78716190Y-66778095D01*
X78192380Y-65873333D02*
X78192380Y-65206666D01*
X79192380Y-65635238D01*
D14*
%TO.C,R1*%
X73040000Y-77120000D02*
X73040000Y-75280000D01*
X69200000Y-77120000D02*
X73040000Y-77120000D01*
X73040000Y-75280000D02*
X69200000Y-75280000D01*
X69200000Y-75280000D02*
X69200000Y-77120000D01*
X73990000Y-76200000D02*
X73040000Y-76200000D01*
X68250000Y-76200000D02*
X69200000Y-76200000D01*
%TO.C,U6*%
X105465000Y-93860000D02*
X87565000Y-93860000D01*
X87565000Y-99160000D02*
X105465000Y-99160000D01*
X87565000Y-93860000D02*
X87565000Y-95510000D01*
X87565000Y-97510000D02*
X87565000Y-99160000D01*
X105465000Y-99160000D02*
X105465000Y-93860000D01*
X87565000Y-97510000D02*
G75*
G03*
X87565000Y-95510000I0J1000000D01*
G01*
%TO.C,R5*%
X41560000Y-84440000D02*
X39720000Y-84440000D01*
X39720000Y-84440000D02*
X39720000Y-88280000D01*
X39720000Y-88280000D02*
X41560000Y-88280000D01*
X41560000Y-88280000D02*
X41560000Y-84440000D01*
X40640000Y-83490000D02*
X40640000Y-84440000D01*
X40640000Y-89230000D02*
X40640000Y-88280000D01*
%TO.C,C4*%
X94611000Y-72562000D02*
X94611000Y-74758000D01*
X92451000Y-74700000D02*
X92451000Y-77326000D01*
X91931000Y-74700000D02*
X91931000Y-77537000D01*
X91451000Y-74700000D02*
X91451000Y-77662000D01*
X93371000Y-74700000D02*
X93371000Y-76715000D01*
X92371000Y-74700000D02*
X92371000Y-77364000D01*
X92331000Y-69938000D02*
X92331000Y-72620000D01*
X92731000Y-74700000D02*
X92731000Y-77177000D01*
X92051000Y-69825000D02*
X92051000Y-72620000D01*
X91651000Y-74700000D02*
X91651000Y-77617000D01*
X92371000Y-69956000D02*
X92371000Y-72620000D01*
X86240302Y-71345000D02*
X87040302Y-71345000D01*
X92131000Y-74700000D02*
X92131000Y-77465000D01*
X91451000Y-69658000D02*
X91451000Y-72620000D01*
X90810000Y-69583000D02*
X90810000Y-77737000D01*
X91290000Y-69630000D02*
X91290000Y-77690000D01*
X93051000Y-70351000D02*
X93051000Y-72620000D01*
X91250000Y-69623000D02*
X91250000Y-77697000D01*
X94451000Y-72108000D02*
X94451000Y-75212000D01*
X90770000Y-69581000D02*
X90770000Y-77739000D01*
X90970000Y-69592000D02*
X90970000Y-77728000D01*
X92811000Y-74700000D02*
X92811000Y-77129000D01*
X92571000Y-74700000D02*
X92571000Y-77266000D01*
X91851000Y-74700000D02*
X91851000Y-77562000D01*
X91891000Y-69771000D02*
X91891000Y-72620000D01*
X91371000Y-69643000D02*
X91371000Y-72620000D01*
X94171000Y-71558000D02*
X94171000Y-75762000D01*
X94251000Y-71696000D02*
X94251000Y-75624000D01*
X91411000Y-69650000D02*
X91411000Y-72620000D01*
X91811000Y-69746000D02*
X91811000Y-72620000D01*
X92491000Y-70013000D02*
X92491000Y-72620000D01*
X93051000Y-74700000D02*
X93051000Y-76969000D01*
X92251000Y-74700000D02*
X92251000Y-77417000D01*
X93411000Y-74700000D02*
X93411000Y-76679000D01*
X92691000Y-74700000D02*
X92691000Y-77200000D01*
X92331000Y-74700000D02*
X92331000Y-77382000D01*
X90850000Y-69584000D02*
X90850000Y-77736000D01*
X94331000Y-71847000D02*
X94331000Y-75473000D01*
X91411000Y-74700000D02*
X91411000Y-77670000D01*
X93531000Y-70753000D02*
X93531000Y-76567000D01*
X91491000Y-74700000D02*
X91491000Y-77654000D01*
X93171000Y-70440000D02*
X93171000Y-72620000D01*
X93211000Y-74700000D02*
X93211000Y-76849000D01*
X91771000Y-69735000D02*
X91771000Y-72620000D01*
X86640302Y-70945000D02*
X86640302Y-71745000D01*
X92211000Y-74700000D02*
X92211000Y-77434000D01*
X91130000Y-69608000D02*
X91130000Y-77712000D01*
X93211000Y-70471000D02*
X93211000Y-72620000D01*
X93851000Y-71104000D02*
X93851000Y-76216000D01*
X91731000Y-74700000D02*
X91731000Y-77596000D01*
X91531000Y-74700000D02*
X91531000Y-77645000D01*
X91771000Y-74700000D02*
X91771000Y-77585000D01*
X92891000Y-74700000D02*
X92891000Y-77078000D01*
X93411000Y-70641000D02*
X93411000Y-72620000D01*
X92931000Y-74700000D02*
X92931000Y-77052000D01*
X91090000Y-69603000D02*
X91090000Y-77717000D01*
X93331000Y-70570000D02*
X93331000Y-72620000D01*
X92411000Y-74700000D02*
X92411000Y-77346000D01*
X94731000Y-73127000D02*
X94731000Y-74193000D01*
X94091000Y-71432000D02*
X94091000Y-75888000D01*
X93091000Y-70380000D02*
X93091000Y-72620000D01*
X93771000Y-71009000D02*
X93771000Y-76311000D01*
X92971000Y-74700000D02*
X92971000Y-77025000D01*
X90650000Y-69580000D02*
X90650000Y-77740000D01*
X91571000Y-69684000D02*
X91571000Y-72620000D01*
X92531000Y-70033000D02*
X92531000Y-72620000D01*
X92731000Y-70143000D02*
X92731000Y-72620000D01*
X93251000Y-70504000D02*
X93251000Y-72620000D01*
X92651000Y-70098000D02*
X92651000Y-72620000D01*
X93291000Y-70536000D02*
X93291000Y-72620000D01*
X92451000Y-69994000D02*
X92451000Y-72620000D01*
X93331000Y-74700000D02*
X93331000Y-76750000D01*
X93611000Y-70834000D02*
X93611000Y-76486000D01*
X92411000Y-69974000D02*
X92411000Y-72620000D01*
X92251000Y-69903000D02*
X92251000Y-72620000D01*
X91611000Y-74700000D02*
X91611000Y-77627000D01*
X93011000Y-70322000D02*
X93011000Y-72620000D01*
X91170000Y-69612000D02*
X91170000Y-77708000D01*
X92691000Y-70120000D02*
X92691000Y-72620000D01*
X90930000Y-69589000D02*
X90930000Y-77731000D01*
X94131000Y-71494000D02*
X94131000Y-75826000D01*
X92611000Y-70076000D02*
X92611000Y-72620000D01*
X93891000Y-71155000D02*
X93891000Y-76165000D01*
X91210000Y-69618000D02*
X91210000Y-77702000D01*
X92491000Y-74700000D02*
X92491000Y-77307000D01*
X92611000Y-74700000D02*
X92611000Y-77244000D01*
X93371000Y-70605000D02*
X93371000Y-72620000D01*
X94691000Y-72892000D02*
X94691000Y-74428000D01*
X91611000Y-69693000D02*
X91611000Y-72620000D01*
X93251000Y-74700000D02*
X93251000Y-76816000D01*
X91931000Y-69783000D02*
X91931000Y-72620000D01*
X93571000Y-70793000D02*
X93571000Y-76527000D01*
X91691000Y-74700000D02*
X91691000Y-77607000D01*
X94651000Y-72712000D02*
X94651000Y-74608000D01*
X92011000Y-69810000D02*
X92011000Y-72620000D01*
X92171000Y-74700000D02*
X92171000Y-77450000D01*
X92091000Y-69839000D02*
X92091000Y-72620000D01*
X91731000Y-69724000D02*
X91731000Y-72620000D01*
X90890000Y-69586000D02*
X90890000Y-77734000D01*
X92011000Y-74700000D02*
X92011000Y-77510000D01*
X93451000Y-70677000D02*
X93451000Y-76643000D01*
X93491000Y-70715000D02*
X93491000Y-76605000D01*
X91491000Y-69666000D02*
X91491000Y-72620000D01*
X94211000Y-71626000D02*
X94211000Y-75694000D01*
X92771000Y-74700000D02*
X92771000Y-77153000D01*
X92651000Y-74700000D02*
X92651000Y-77222000D01*
X92091000Y-74700000D02*
X92091000Y-77481000D01*
X94011000Y-71315000D02*
X94011000Y-76005000D01*
X92891000Y-70242000D02*
X92891000Y-72620000D01*
X91330000Y-69636000D02*
X91330000Y-77684000D01*
X92211000Y-69886000D02*
X92211000Y-72620000D01*
X92771000Y-70167000D02*
X92771000Y-72620000D01*
X94571000Y-72431000D02*
X94571000Y-74889000D01*
X91010000Y-69595000D02*
X91010000Y-77725000D01*
X91811000Y-74700000D02*
X91811000Y-77574000D01*
X91851000Y-69758000D02*
X91851000Y-72620000D01*
X91571000Y-74700000D02*
X91571000Y-77636000D01*
X94411000Y-72015000D02*
X94411000Y-75305000D01*
X91971000Y-69797000D02*
X91971000Y-72620000D01*
X91651000Y-69703000D02*
X91651000Y-72620000D01*
X90730000Y-69580000D02*
X90730000Y-77740000D01*
X92291000Y-74700000D02*
X92291000Y-77400000D01*
X93171000Y-74700000D02*
X93171000Y-76880000D01*
X92131000Y-69855000D02*
X92131000Y-72620000D01*
X94371000Y-71929000D02*
X94371000Y-75391000D01*
X92971000Y-70295000D02*
X92971000Y-72620000D01*
X91891000Y-74700000D02*
X91891000Y-77549000D01*
X91371000Y-74700000D02*
X91371000Y-77677000D01*
X93731000Y-70963000D02*
X93731000Y-76357000D01*
X91050000Y-69599000D02*
X91050000Y-77721000D01*
X93651000Y-70876000D02*
X93651000Y-76444000D01*
X93931000Y-71206000D02*
X93931000Y-76114000D01*
X92291000Y-69920000D02*
X92291000Y-72620000D01*
X93811000Y-71056000D02*
X93811000Y-76264000D01*
X92811000Y-70191000D02*
X92811000Y-72620000D01*
X92851000Y-70216000D02*
X92851000Y-72620000D01*
X94291000Y-71770000D02*
X94291000Y-75550000D01*
X92051000Y-74700000D02*
X92051000Y-77495000D01*
X93691000Y-70919000D02*
X93691000Y-76401000D01*
X92851000Y-74700000D02*
X92851000Y-77104000D01*
X92571000Y-70054000D02*
X92571000Y-72620000D01*
X93131000Y-74700000D02*
X93131000Y-76910000D01*
X94051000Y-71373000D02*
X94051000Y-75947000D01*
X92171000Y-69870000D02*
X92171000Y-72620000D01*
X93291000Y-74700000D02*
X93291000Y-76784000D01*
X92931000Y-70268000D02*
X92931000Y-72620000D01*
X94531000Y-72314000D02*
X94531000Y-75006000D01*
X93131000Y-70410000D02*
X93131000Y-72620000D01*
X93091000Y-74700000D02*
X93091000Y-76940000D01*
X91691000Y-69713000D02*
X91691000Y-72620000D01*
X94491000Y-72207000D02*
X94491000Y-75113000D01*
X93011000Y-74700000D02*
X93011000Y-76998000D01*
X92531000Y-74700000D02*
X92531000Y-77287000D01*
X91971000Y-74700000D02*
X91971000Y-77523000D01*
X90690000Y-69580000D02*
X90690000Y-77740000D01*
X93971000Y-71260000D02*
X93971000Y-76060000D01*
X91531000Y-69675000D02*
X91531000Y-72620000D01*
X94770000Y-73660000D02*
G75*
G03*
X94770000Y-73660000I-4120000J0D01*
G01*
%TO.C,U3*%
X50750000Y-99160000D02*
X61030000Y-99160000D01*
X50750000Y-97510000D02*
X50750000Y-99160000D01*
X61030000Y-99160000D02*
X61030000Y-93860000D01*
X50750000Y-93860000D02*
X50750000Y-95510000D01*
X61030000Y-93860000D02*
X50750000Y-93860000D01*
X50750000Y-97510000D02*
G75*
G03*
X50750000Y-95510000I0J1000000D01*
G01*
%TO.C,R4*%
X45720000Y-68250000D02*
X45720000Y-69200000D01*
X46640000Y-73040000D02*
X46640000Y-69200000D01*
X46640000Y-69200000D02*
X44800000Y-69200000D01*
X44800000Y-73040000D02*
X46640000Y-73040000D01*
X44800000Y-69200000D02*
X44800000Y-73040000D01*
X45720000Y-73990000D02*
X45720000Y-73040000D01*
%TO.C,J2*%
X100330000Y-67370000D02*
X105470000Y-67370000D01*
X100330000Y-67370000D02*
X100330000Y-64710000D01*
X99060000Y-67370000D02*
X97730000Y-67370000D01*
X100330000Y-64710000D02*
X105470000Y-64710000D01*
X105470000Y-67370000D02*
X105470000Y-64710000D01*
X97730000Y-67370000D02*
X97730000Y-66040000D01*
%TO.C,U2*%
X61030000Y-86460000D02*
X61030000Y-81160000D01*
X61030000Y-81160000D02*
X50750000Y-81160000D01*
X50750000Y-84810000D02*
X50750000Y-86460000D01*
X50750000Y-86460000D02*
X61030000Y-86460000D01*
X50750000Y-81160000D02*
X50750000Y-82810000D01*
X50750000Y-84810000D02*
G75*
G03*
X50750000Y-82810000I0J1000000D01*
G01*
%TO.C,R2*%
X73040000Y-77820000D02*
X69200000Y-77820000D01*
X69200000Y-79660000D02*
X73040000Y-79660000D01*
X73990000Y-78740000D02*
X73040000Y-78740000D01*
X68250000Y-78740000D02*
X69200000Y-78740000D01*
X69200000Y-77820000D02*
X69200000Y-79660000D01*
X73040000Y-79660000D02*
X73040000Y-77820000D01*
%TO.C,U1*%
X61030000Y-73760000D02*
X61030000Y-68460000D01*
X50750000Y-68460000D02*
X50750000Y-70110000D01*
X50750000Y-73760000D02*
X61030000Y-73760000D01*
X61030000Y-68460000D02*
X50750000Y-68460000D01*
X50750000Y-72110000D02*
X50750000Y-73760000D01*
X50750000Y-72110000D02*
G75*
G03*
X50750000Y-70110000I0J1000000D01*
G01*
%TO.C,RV1*%
X76005000Y-73150000D02*
X76005000Y-66810000D01*
X76005000Y-73150000D02*
X66235000Y-73150000D01*
X66235000Y-73150000D02*
X66235000Y-66810000D01*
X76005000Y-66810000D02*
X66235000Y-66810000D01*
%TO.C,J1*%
X39310000Y-74870000D02*
X40640000Y-74870000D01*
X39310000Y-80070000D02*
X41970000Y-80070000D01*
X39310000Y-76200000D02*
X39310000Y-74870000D01*
X39310000Y-77470000D02*
X39310000Y-80070000D01*
X41970000Y-77470000D02*
X41970000Y-80070000D01*
X39310000Y-77470000D02*
X41970000Y-77470000D01*
%TO.C,C1*%
X71651000Y-87400000D02*
X71651000Y-90223000D01*
X73531000Y-83804000D02*
X73531000Y-88916000D01*
X70930000Y-82323000D02*
X70930000Y-90397000D01*
X71611000Y-82483000D02*
X71611000Y-85320000D01*
X72451000Y-82867000D02*
X72451000Y-85320000D01*
X71571000Y-87400000D02*
X71571000Y-90249000D01*
X70610000Y-82289000D02*
X70610000Y-90431000D01*
X71051000Y-82343000D02*
X71051000Y-85320000D01*
X70410000Y-82280000D02*
X70410000Y-90440000D01*
X73971000Y-84470000D02*
X73971000Y-88250000D01*
X71211000Y-82375000D02*
X71211000Y-85320000D01*
X71451000Y-82435000D02*
X71451000Y-85320000D01*
X70850000Y-82312000D02*
X70850000Y-90408000D01*
X74331000Y-85412000D02*
X74331000Y-87308000D01*
X73571000Y-83855000D02*
X73571000Y-88865000D01*
X71091000Y-82350000D02*
X71091000Y-85320000D01*
X71331000Y-82403000D02*
X71331000Y-85320000D01*
X74091000Y-84715000D02*
X74091000Y-88005000D01*
X73091000Y-87400000D02*
X73091000Y-89379000D01*
X72371000Y-82820000D02*
X72371000Y-85320000D01*
X73931000Y-84396000D02*
X73931000Y-88324000D01*
X70530000Y-82284000D02*
X70530000Y-90436000D01*
X71771000Y-82539000D02*
X71771000Y-85320000D01*
X70650000Y-82292000D02*
X70650000Y-90428000D01*
X72691000Y-83022000D02*
X72691000Y-85320000D01*
X72331000Y-87400000D02*
X72331000Y-89922000D01*
X72651000Y-87400000D02*
X72651000Y-89725000D01*
X71411000Y-82424000D02*
X71411000Y-85320000D01*
X73491000Y-83756000D02*
X73491000Y-88964000D01*
X72211000Y-82733000D02*
X72211000Y-85320000D01*
X72291000Y-87400000D02*
X72291000Y-89944000D01*
X73091000Y-83341000D02*
X73091000Y-85320000D01*
X73611000Y-83906000D02*
X73611000Y-88814000D01*
X70770000Y-82303000D02*
X70770000Y-90417000D01*
X72891000Y-83171000D02*
X72891000Y-85320000D01*
X71691000Y-82510000D02*
X71691000Y-85320000D01*
X72331000Y-82798000D02*
X72331000Y-85320000D01*
X71691000Y-87400000D02*
X71691000Y-90210000D01*
X72131000Y-82694000D02*
X72131000Y-85320000D01*
X74251000Y-85131000D02*
X74251000Y-87589000D01*
X73131000Y-83377000D02*
X73131000Y-89343000D01*
X72251000Y-87400000D02*
X72251000Y-89966000D01*
X72611000Y-82968000D02*
X72611000Y-85320000D01*
X71971000Y-87400000D02*
X71971000Y-90100000D01*
X73171000Y-83415000D02*
X73171000Y-89305000D01*
X73291000Y-83534000D02*
X73291000Y-89186000D01*
X71411000Y-87400000D02*
X71411000Y-90296000D01*
X73411000Y-83663000D02*
X73411000Y-89057000D01*
X72651000Y-82995000D02*
X72651000Y-85320000D01*
X71371000Y-87400000D02*
X71371000Y-90307000D01*
X72091000Y-87400000D02*
X72091000Y-90046000D01*
X71131000Y-82358000D02*
X71131000Y-85320000D01*
X72771000Y-83080000D02*
X72771000Y-85320000D01*
X72771000Y-87400000D02*
X72771000Y-89640000D01*
X71611000Y-87400000D02*
X71611000Y-90237000D01*
X73691000Y-84015000D02*
X73691000Y-88705000D01*
X72531000Y-87400000D02*
X72531000Y-89804000D01*
X72171000Y-87400000D02*
X72171000Y-90007000D01*
X71251000Y-82384000D02*
X71251000Y-85320000D01*
X72571000Y-82942000D02*
X72571000Y-85320000D01*
X71451000Y-87400000D02*
X71451000Y-90285000D01*
X72491000Y-82891000D02*
X72491000Y-85320000D01*
X72811000Y-83110000D02*
X72811000Y-85320000D01*
X72731000Y-83051000D02*
X72731000Y-85320000D01*
X73451000Y-83709000D02*
X73451000Y-89011000D01*
X71651000Y-82497000D02*
X71651000Y-85320000D01*
X71371000Y-82413000D02*
X71371000Y-85320000D01*
X70970000Y-82330000D02*
X70970000Y-90390000D01*
X73731000Y-84073000D02*
X73731000Y-88647000D01*
X72451000Y-87400000D02*
X72451000Y-89853000D01*
X72211000Y-87400000D02*
X72211000Y-89987000D01*
X72411000Y-82843000D02*
X72411000Y-85320000D01*
X71891000Y-82586000D02*
X71891000Y-85320000D01*
X72891000Y-87400000D02*
X72891000Y-89549000D01*
X74131000Y-84808000D02*
X74131000Y-87912000D01*
X71051000Y-87400000D02*
X71051000Y-90377000D01*
X71091000Y-87400000D02*
X71091000Y-90370000D01*
X73251000Y-83493000D02*
X73251000Y-89227000D01*
X71811000Y-82555000D02*
X71811000Y-85320000D01*
X70330000Y-82280000D02*
X70330000Y-90440000D01*
X72131000Y-87400000D02*
X72131000Y-90026000D01*
X72851000Y-87400000D02*
X72851000Y-89580000D01*
X74171000Y-84907000D02*
X74171000Y-87813000D01*
X65920302Y-84045000D02*
X66720302Y-84045000D01*
X72611000Y-87400000D02*
X72611000Y-89752000D01*
X73771000Y-84132000D02*
X73771000Y-88588000D01*
X73011000Y-87400000D02*
X73011000Y-89450000D01*
X72411000Y-87400000D02*
X72411000Y-89877000D01*
X72531000Y-82916000D02*
X72531000Y-85320000D01*
X71971000Y-82620000D02*
X71971000Y-85320000D01*
X71171000Y-87400000D02*
X71171000Y-90354000D01*
X71731000Y-82525000D02*
X71731000Y-85320000D01*
X71131000Y-87400000D02*
X71131000Y-90362000D01*
X70730000Y-82299000D02*
X70730000Y-90421000D01*
X70690000Y-82295000D02*
X70690000Y-90425000D01*
X73371000Y-83619000D02*
X73371000Y-89101000D01*
X70490000Y-82283000D02*
X70490000Y-90437000D01*
X71291000Y-87400000D02*
X71291000Y-90327000D01*
X72571000Y-87400000D02*
X72571000Y-89778000D01*
X72051000Y-82656000D02*
X72051000Y-85320000D01*
X73211000Y-83453000D02*
X73211000Y-89267000D01*
X73051000Y-83305000D02*
X73051000Y-85320000D01*
X73851000Y-84258000D02*
X73851000Y-88462000D01*
X71171000Y-82366000D02*
X71171000Y-85320000D01*
X74211000Y-85014000D02*
X74211000Y-87706000D01*
X71491000Y-82446000D02*
X71491000Y-85320000D01*
X72011000Y-82638000D02*
X72011000Y-85320000D01*
X72291000Y-82776000D02*
X72291000Y-85320000D01*
X71571000Y-82471000D02*
X71571000Y-85320000D01*
X71771000Y-87400000D02*
X71771000Y-90181000D01*
X74051000Y-84629000D02*
X74051000Y-88091000D01*
X71891000Y-87400000D02*
X71891000Y-90134000D01*
X73811000Y-84194000D02*
X73811000Y-88526000D01*
X70450000Y-82281000D02*
X70450000Y-90439000D01*
X72371000Y-87400000D02*
X72371000Y-89900000D01*
X74291000Y-85262000D02*
X74291000Y-87458000D01*
X72931000Y-87400000D02*
X72931000Y-89516000D01*
X72971000Y-87400000D02*
X72971000Y-89484000D01*
X73651000Y-83960000D02*
X73651000Y-88760000D01*
X72851000Y-83140000D02*
X72851000Y-85320000D01*
X72491000Y-87400000D02*
X72491000Y-89829000D01*
X72251000Y-82754000D02*
X72251000Y-85320000D01*
X70890000Y-82318000D02*
X70890000Y-90402000D01*
X70370000Y-82280000D02*
X70370000Y-90440000D01*
X70570000Y-82286000D02*
X70570000Y-90434000D01*
X72051000Y-87400000D02*
X72051000Y-90064000D01*
X72971000Y-83236000D02*
X72971000Y-85320000D01*
X71491000Y-87400000D02*
X71491000Y-90274000D01*
X72171000Y-82713000D02*
X72171000Y-85320000D01*
X72811000Y-87400000D02*
X72811000Y-89610000D01*
X71291000Y-82393000D02*
X71291000Y-85320000D01*
X74011000Y-84547000D02*
X74011000Y-88173000D01*
X73331000Y-83576000D02*
X73331000Y-89144000D01*
X71010000Y-82336000D02*
X71010000Y-90384000D01*
X71731000Y-87400000D02*
X71731000Y-90195000D01*
X74371000Y-85592000D02*
X74371000Y-87128000D01*
X71931000Y-82603000D02*
X71931000Y-85320000D01*
X71211000Y-87400000D02*
X71211000Y-90345000D01*
X72691000Y-87400000D02*
X72691000Y-89698000D01*
X66320302Y-83645000D02*
X66320302Y-84445000D01*
X71931000Y-87400000D02*
X71931000Y-90117000D01*
X71851000Y-87400000D02*
X71851000Y-90150000D01*
X72931000Y-83204000D02*
X72931000Y-85320000D01*
X73011000Y-83270000D02*
X73011000Y-85320000D01*
X71251000Y-87400000D02*
X71251000Y-90336000D01*
X73891000Y-84326000D02*
X73891000Y-88394000D01*
X71531000Y-87400000D02*
X71531000Y-90262000D01*
X72091000Y-82674000D02*
X72091000Y-85320000D01*
X71531000Y-82458000D02*
X71531000Y-85320000D01*
X71331000Y-87400000D02*
X71331000Y-90317000D01*
X72011000Y-87400000D02*
X72011000Y-90082000D01*
X71811000Y-87400000D02*
X71811000Y-90165000D01*
X71851000Y-82570000D02*
X71851000Y-85320000D01*
X74411000Y-85827000D02*
X74411000Y-86893000D01*
X73051000Y-87400000D02*
X73051000Y-89415000D01*
X72731000Y-87400000D02*
X72731000Y-89669000D01*
X70810000Y-82308000D02*
X70810000Y-90412000D01*
X74450000Y-86360000D02*
G75*
G03*
X74450000Y-86360000I-4120000J0D01*
G01*
%TO.C,D1*%
X82530000Y-64495000D02*
X82530000Y-67585000D01*
X88080000Y-66040462D02*
G75*
G03*
X82530000Y-64495170I-2990000J462D01*
G01*
X82530000Y-67584830D02*
G75*
G03*
X88080000Y-66039538I2560000J1544830D01*
G01*
X87590000Y-66040000D02*
G75*
G03*
X87590000Y-66040000I-2500000J0D01*
G01*
%TO.C,U5*%
X87570000Y-82440000D02*
X87570000Y-84090000D01*
X105470000Y-82440000D02*
X87570000Y-82440000D01*
X105470000Y-87740000D02*
X105470000Y-82440000D01*
X87570000Y-87740000D02*
X105470000Y-87740000D01*
X87570000Y-86090000D02*
X87570000Y-87740000D01*
X87570000Y-86090000D02*
G75*
G03*
X87570000Y-84090000I0J1000000D01*
G01*
%TO.C,R6*%
X44800000Y-88280000D02*
X46640000Y-88280000D01*
X45720000Y-83490000D02*
X45720000Y-84440000D01*
X45720000Y-89230000D02*
X45720000Y-88280000D01*
X46640000Y-84440000D02*
X44800000Y-84440000D01*
X44800000Y-84440000D02*
X44800000Y-88280000D01*
X46640000Y-88280000D02*
X46640000Y-84440000D01*
%TO.C,U4*%
X67245000Y-99160000D02*
X85145000Y-99160000D01*
X67245000Y-97510000D02*
X67245000Y-99160000D01*
X85145000Y-93860000D02*
X67245000Y-93860000D01*
X67245000Y-93860000D02*
X67245000Y-95510000D01*
X85145000Y-99160000D02*
X85145000Y-93860000D01*
X67245000Y-97510000D02*
G75*
G03*
X67245000Y-95510000I0J1000000D01*
G01*
%TO.C,SW1*%
X42930000Y-92210000D02*
X46630000Y-92210000D01*
X46630000Y-97530000D02*
X46630000Y-98090000D01*
X42930000Y-95590000D02*
X42930000Y-95030000D01*
X46630000Y-95040000D02*
X46630000Y-95590000D01*
X42630000Y-101210000D02*
X42630000Y-100210000D01*
X46630000Y-100910000D02*
X42930000Y-100910000D01*
X46630000Y-92210000D02*
X46630000Y-93080000D01*
X42930000Y-93090000D02*
X42930000Y-92210000D01*
X43630000Y-101210000D02*
X42630000Y-101210000D01*
X42930000Y-98060000D02*
X42930000Y-97530000D01*
X42930000Y-100910000D02*
X42930000Y-100060000D01*
X46630000Y-100030000D02*
X46630000Y-100910000D01*
%TO.C,C2*%
X93781000Y-64116000D02*
X93781000Y-65200000D01*
X93500000Y-66880000D02*
X93500000Y-68056000D01*
X94261000Y-66880000D02*
X94261000Y-67690000D01*
X94101000Y-66880000D02*
X94101000Y-67800000D01*
X93300000Y-63984000D02*
X93300000Y-65200000D01*
X95021000Y-65503000D02*
X95021000Y-66577000D01*
X93500000Y-64024000D02*
X93500000Y-65200000D01*
X94141000Y-66880000D02*
X94141000Y-67775000D01*
X93180000Y-63969000D02*
X93180000Y-65200000D01*
X90710199Y-64845000D02*
X91110199Y-64845000D01*
X90910199Y-64645000D02*
X90910199Y-65045000D01*
X94941000Y-65272000D02*
X94941000Y-66808000D01*
X94701000Y-66880000D02*
X94701000Y-67240000D01*
X94461000Y-64562000D02*
X94461000Y-65200000D01*
X93781000Y-66880000D02*
X93781000Y-67964000D01*
X94061000Y-66880000D02*
X94061000Y-67825000D01*
X93340000Y-63990000D02*
X93340000Y-65200000D01*
X93540000Y-66880000D02*
X93540000Y-68045000D01*
X94861000Y-65100000D02*
X94861000Y-66980000D01*
X93821000Y-66880000D02*
X93821000Y-67947000D01*
X93140000Y-63966000D02*
X93140000Y-68114000D01*
X93941000Y-66880000D02*
X93941000Y-67891000D01*
X93620000Y-66880000D02*
X93620000Y-68022000D01*
X94581000Y-66880000D02*
X94581000Y-67391000D01*
X93580000Y-66880000D02*
X93580000Y-68034000D01*
X93861000Y-64151000D02*
X93861000Y-65200000D01*
X93300000Y-66880000D02*
X93300000Y-68096000D01*
X92980000Y-63960000D02*
X92980000Y-68120000D01*
X94981000Y-65376000D02*
X94981000Y-66704000D01*
X94821000Y-65027000D02*
X94821000Y-67053000D01*
X94501000Y-64602000D02*
X94501000Y-65200000D01*
X93380000Y-63998000D02*
X93380000Y-65200000D01*
X94781000Y-64960000D02*
X94781000Y-65200000D01*
X94301000Y-64421000D02*
X94301000Y-65200000D01*
X93380000Y-66880000D02*
X93380000Y-68082000D01*
X93901000Y-66880000D02*
X93901000Y-67910000D01*
X93580000Y-64046000D02*
X93580000Y-65200000D01*
X94741000Y-66880000D02*
X94741000Y-67182000D01*
X93420000Y-66880000D02*
X93420000Y-68074000D01*
X94621000Y-66880000D02*
X94621000Y-67344000D01*
X93701000Y-66880000D02*
X93701000Y-67994000D01*
X93220000Y-66880000D02*
X93220000Y-68107000D01*
X93260000Y-63978000D02*
X93260000Y-65200000D01*
X94781000Y-66880000D02*
X94781000Y-67120000D01*
X94901000Y-65181000D02*
X94901000Y-66899000D01*
X94341000Y-64453000D02*
X94341000Y-65200000D01*
X93100000Y-63963000D02*
X93100000Y-68117000D01*
X94181000Y-66880000D02*
X94181000Y-67748000D01*
X93420000Y-64006000D02*
X93420000Y-65200000D01*
X94621000Y-64736000D02*
X94621000Y-65200000D01*
X93340000Y-66880000D02*
X93340000Y-68090000D01*
X94341000Y-66880000D02*
X94341000Y-67627000D01*
X93701000Y-64086000D02*
X93701000Y-65200000D01*
X93060000Y-63961000D02*
X93060000Y-68119000D01*
X94021000Y-64232000D02*
X94021000Y-65200000D01*
X93981000Y-64210000D02*
X93981000Y-65200000D01*
X93941000Y-64189000D02*
X93941000Y-65200000D01*
X93460000Y-66880000D02*
X93460000Y-68065000D01*
X93180000Y-66880000D02*
X93180000Y-68111000D01*
X94141000Y-64305000D02*
X94141000Y-65200000D01*
X93220000Y-63973000D02*
X93220000Y-65200000D01*
X93821000Y-64133000D02*
X93821000Y-65200000D01*
X93620000Y-64058000D02*
X93620000Y-65200000D01*
X94181000Y-64332000D02*
X94181000Y-65200000D01*
X94021000Y-66880000D02*
X94021000Y-67848000D01*
X93660000Y-66880000D02*
X93660000Y-68008000D01*
X93741000Y-64100000D02*
X93741000Y-65200000D01*
X94261000Y-64390000D02*
X94261000Y-65200000D01*
X94541000Y-64644000D02*
X94541000Y-65200000D01*
X93861000Y-66880000D02*
X93861000Y-67929000D01*
X94421000Y-64524000D02*
X94421000Y-65200000D01*
X93981000Y-66880000D02*
X93981000Y-67870000D01*
X94461000Y-66880000D02*
X94461000Y-67518000D01*
X94541000Y-66880000D02*
X94541000Y-67436000D01*
X93020000Y-63960000D02*
X93020000Y-68120000D01*
X94381000Y-64488000D02*
X94381000Y-65200000D01*
X94381000Y-66880000D02*
X94381000Y-67592000D01*
X94061000Y-64255000D02*
X94061000Y-65200000D01*
X93660000Y-64072000D02*
X93660000Y-65200000D01*
X94741000Y-64898000D02*
X94741000Y-65200000D01*
X94661000Y-64786000D02*
X94661000Y-65200000D01*
X94501000Y-66880000D02*
X94501000Y-67478000D01*
X94221000Y-64360000D02*
X94221000Y-65200000D01*
X93540000Y-64035000D02*
X93540000Y-65200000D01*
X94581000Y-64689000D02*
X94581000Y-65200000D01*
X94421000Y-66880000D02*
X94421000Y-67556000D01*
X94101000Y-64280000D02*
X94101000Y-65200000D01*
X93741000Y-66880000D02*
X93741000Y-67980000D01*
X93260000Y-66880000D02*
X93260000Y-68102000D01*
X94701000Y-64840000D02*
X94701000Y-65200000D01*
X93901000Y-64170000D02*
X93901000Y-65200000D01*
X94301000Y-66880000D02*
X94301000Y-67659000D01*
X93460000Y-64015000D02*
X93460000Y-65200000D01*
X95061000Y-65670000D02*
X95061000Y-66410000D01*
X94661000Y-66880000D02*
X94661000Y-67294000D01*
X94221000Y-66880000D02*
X94221000Y-67720000D01*
X95100000Y-66040000D02*
G75*
G03*
X95100000Y-66040000I-2120000J0D01*
G01*
%TO.C,C5*%
X82211000Y-82656000D02*
X82211000Y-85320000D01*
X80610000Y-82281000D02*
X80610000Y-90439000D01*
X82371000Y-87400000D02*
X82371000Y-89987000D01*
X82531000Y-87400000D02*
X82531000Y-89900000D01*
X82691000Y-87400000D02*
X82691000Y-89804000D01*
X83611000Y-83709000D02*
X83611000Y-89011000D01*
X83011000Y-87400000D02*
X83011000Y-89580000D01*
X81971000Y-82555000D02*
X81971000Y-85320000D01*
X81451000Y-82393000D02*
X81451000Y-85320000D01*
X82611000Y-82867000D02*
X82611000Y-85320000D01*
X84091000Y-84396000D02*
X84091000Y-88324000D01*
X82411000Y-82754000D02*
X82411000Y-85320000D01*
X82851000Y-87400000D02*
X82851000Y-89698000D01*
X81731000Y-82471000D02*
X81731000Y-85320000D01*
X82571000Y-82843000D02*
X82571000Y-85320000D01*
X80850000Y-82295000D02*
X80850000Y-90425000D01*
X83171000Y-87400000D02*
X83171000Y-89450000D01*
X84291000Y-84808000D02*
X84291000Y-87912000D01*
X84251000Y-84715000D02*
X84251000Y-88005000D01*
X83451000Y-83534000D02*
X83451000Y-89186000D01*
X81771000Y-87400000D02*
X81771000Y-90237000D01*
X82371000Y-82733000D02*
X82371000Y-85320000D01*
X82171000Y-87400000D02*
X82171000Y-90082000D01*
X83731000Y-83855000D02*
X83731000Y-88865000D01*
X82771000Y-87400000D02*
X82771000Y-89752000D01*
X82251000Y-82674000D02*
X82251000Y-85320000D01*
X83891000Y-84073000D02*
X83891000Y-88647000D01*
X81211000Y-87400000D02*
X81211000Y-90377000D01*
X82611000Y-87400000D02*
X82611000Y-89853000D01*
X84171000Y-84547000D02*
X84171000Y-88173000D01*
X83171000Y-83270000D02*
X83171000Y-85320000D01*
X82131000Y-82620000D02*
X82131000Y-85320000D01*
X81291000Y-87400000D02*
X81291000Y-90362000D01*
X83691000Y-83804000D02*
X83691000Y-88916000D01*
X81691000Y-82458000D02*
X81691000Y-85320000D01*
X81090000Y-82323000D02*
X81090000Y-90397000D01*
X82491000Y-87400000D02*
X82491000Y-89922000D01*
X81651000Y-82446000D02*
X81651000Y-85320000D01*
X82251000Y-87400000D02*
X82251000Y-90046000D01*
X80970000Y-82308000D02*
X80970000Y-90412000D01*
X82931000Y-87400000D02*
X82931000Y-89640000D01*
X83091000Y-83204000D02*
X83091000Y-85320000D01*
X81931000Y-87400000D02*
X81931000Y-90181000D01*
X80650000Y-82283000D02*
X80650000Y-90437000D01*
X80570000Y-82280000D02*
X80570000Y-90440000D01*
X83851000Y-84015000D02*
X83851000Y-88705000D01*
X82651000Y-87400000D02*
X82651000Y-89829000D01*
X83771000Y-83906000D02*
X83771000Y-88814000D01*
X84491000Y-85412000D02*
X84491000Y-87308000D01*
X81331000Y-82366000D02*
X81331000Y-85320000D01*
X81851000Y-87400000D02*
X81851000Y-90210000D01*
X83931000Y-84132000D02*
X83931000Y-88588000D01*
X83371000Y-83453000D02*
X83371000Y-89267000D01*
X81891000Y-87400000D02*
X81891000Y-90195000D01*
X81491000Y-87400000D02*
X81491000Y-90317000D01*
X81531000Y-87400000D02*
X81531000Y-90307000D01*
X83971000Y-84194000D02*
X83971000Y-88526000D01*
X82771000Y-82968000D02*
X82771000Y-85320000D01*
X82851000Y-83022000D02*
X82851000Y-85320000D01*
X81411000Y-87400000D02*
X81411000Y-90336000D01*
X81371000Y-82375000D02*
X81371000Y-85320000D01*
X82731000Y-87400000D02*
X82731000Y-89778000D01*
X81251000Y-82350000D02*
X81251000Y-85320000D01*
X81050000Y-82318000D02*
X81050000Y-90402000D01*
X81211000Y-82343000D02*
X81211000Y-85320000D01*
X83331000Y-83415000D02*
X83331000Y-89305000D01*
X80530000Y-82280000D02*
X80530000Y-90440000D01*
X81531000Y-82413000D02*
X81531000Y-85320000D01*
X84411000Y-85131000D02*
X84411000Y-87589000D01*
X84451000Y-85262000D02*
X84451000Y-87458000D01*
X81811000Y-87400000D02*
X81811000Y-90223000D01*
X82971000Y-83110000D02*
X82971000Y-85320000D01*
X82291000Y-82694000D02*
X82291000Y-85320000D01*
X82091000Y-82603000D02*
X82091000Y-85320000D01*
X84371000Y-85014000D02*
X84371000Y-87706000D01*
X76080302Y-84045000D02*
X76880302Y-84045000D01*
X80930000Y-82303000D02*
X80930000Y-90417000D01*
X81691000Y-87400000D02*
X81691000Y-90262000D01*
X82651000Y-82891000D02*
X82651000Y-85320000D01*
X83571000Y-83663000D02*
X83571000Y-89057000D01*
X81891000Y-82525000D02*
X81891000Y-85320000D01*
X81251000Y-87400000D02*
X81251000Y-90370000D01*
X81611000Y-87400000D02*
X81611000Y-90285000D01*
X81571000Y-87400000D02*
X81571000Y-90296000D01*
X81571000Y-82424000D02*
X81571000Y-85320000D01*
X82091000Y-87400000D02*
X82091000Y-90117000D01*
X83251000Y-83341000D02*
X83251000Y-85320000D01*
X81971000Y-87400000D02*
X81971000Y-90165000D01*
X81931000Y-82539000D02*
X81931000Y-85320000D01*
X81731000Y-87400000D02*
X81731000Y-90249000D01*
X80690000Y-82284000D02*
X80690000Y-90436000D01*
X82451000Y-87400000D02*
X82451000Y-89944000D01*
X84571000Y-85827000D02*
X84571000Y-86893000D01*
X80770000Y-82289000D02*
X80770000Y-90431000D01*
X81771000Y-82483000D02*
X81771000Y-85320000D01*
X83531000Y-83619000D02*
X83531000Y-89101000D01*
X83651000Y-83756000D02*
X83651000Y-88964000D01*
X82331000Y-82713000D02*
X82331000Y-85320000D01*
X83211000Y-87400000D02*
X83211000Y-89415000D01*
X80890000Y-82299000D02*
X80890000Y-90421000D01*
X82291000Y-87400000D02*
X82291000Y-90026000D01*
X82891000Y-87400000D02*
X82891000Y-89669000D01*
X83411000Y-83493000D02*
X83411000Y-89227000D01*
X81651000Y-87400000D02*
X81651000Y-90274000D01*
X81010000Y-82312000D02*
X81010000Y-90408000D01*
X80810000Y-82292000D02*
X80810000Y-90428000D01*
X82491000Y-82798000D02*
X82491000Y-85320000D01*
X82691000Y-82916000D02*
X82691000Y-85320000D01*
X84011000Y-84258000D02*
X84011000Y-88462000D01*
X83091000Y-87400000D02*
X83091000Y-89516000D01*
X81371000Y-87400000D02*
X81371000Y-90345000D01*
X82211000Y-87400000D02*
X82211000Y-90064000D01*
X80490000Y-82280000D02*
X80490000Y-90440000D01*
X84131000Y-84470000D02*
X84131000Y-88250000D01*
X83011000Y-83140000D02*
X83011000Y-85320000D01*
X81291000Y-82358000D02*
X81291000Y-85320000D01*
X81851000Y-82510000D02*
X81851000Y-85320000D01*
X82411000Y-87400000D02*
X82411000Y-89966000D01*
X82731000Y-82942000D02*
X82731000Y-85320000D01*
X81411000Y-82384000D02*
X81411000Y-85320000D01*
X81130000Y-82330000D02*
X81130000Y-90390000D01*
X81170000Y-82336000D02*
X81170000Y-90384000D01*
X82531000Y-82820000D02*
X82531000Y-85320000D01*
X82171000Y-82638000D02*
X82171000Y-85320000D01*
X84331000Y-84907000D02*
X84331000Y-87813000D01*
X84211000Y-84629000D02*
X84211000Y-88091000D01*
X82131000Y-87400000D02*
X82131000Y-90100000D01*
X82931000Y-83080000D02*
X82931000Y-85320000D01*
X82971000Y-87400000D02*
X82971000Y-89610000D01*
X83131000Y-83236000D02*
X83131000Y-85320000D01*
X80730000Y-82286000D02*
X80730000Y-90434000D01*
X81811000Y-82497000D02*
X81811000Y-85320000D01*
X82451000Y-82776000D02*
X82451000Y-85320000D01*
X81611000Y-82435000D02*
X81611000Y-85320000D01*
X83291000Y-83377000D02*
X83291000Y-89343000D01*
X76480302Y-83645000D02*
X76480302Y-84445000D01*
X82331000Y-87400000D02*
X82331000Y-90007000D01*
X82571000Y-87400000D02*
X82571000Y-89877000D01*
X82051000Y-82586000D02*
X82051000Y-85320000D01*
X83051000Y-83171000D02*
X83051000Y-85320000D01*
X83811000Y-83960000D02*
X83811000Y-88760000D01*
X82011000Y-87400000D02*
X82011000Y-90150000D01*
X84531000Y-85592000D02*
X84531000Y-87128000D01*
X83131000Y-87400000D02*
X83131000Y-89484000D01*
X83491000Y-83576000D02*
X83491000Y-89144000D01*
X82051000Y-87400000D02*
X82051000Y-90134000D01*
X82811000Y-87400000D02*
X82811000Y-89725000D01*
X82891000Y-83051000D02*
X82891000Y-85320000D01*
X81331000Y-87400000D02*
X81331000Y-90354000D01*
X81491000Y-82403000D02*
X81491000Y-85320000D01*
X82811000Y-82995000D02*
X82811000Y-85320000D01*
X82011000Y-82570000D02*
X82011000Y-85320000D01*
X83051000Y-87400000D02*
X83051000Y-89549000D01*
X83211000Y-83305000D02*
X83211000Y-85320000D01*
X83251000Y-87400000D02*
X83251000Y-89379000D01*
X84051000Y-84326000D02*
X84051000Y-88394000D01*
X81451000Y-87400000D02*
X81451000Y-90327000D01*
X84610000Y-86360000D02*
G75*
G03*
X84610000Y-86360000I-4120000J0D01*
G01*
%TO.C,R3*%
X63500000Y-86690000D02*
X63500000Y-85740000D01*
X62580000Y-81900000D02*
X62580000Y-85740000D01*
X62580000Y-85740000D02*
X64420000Y-85740000D01*
X63500000Y-80950000D02*
X63500000Y-81900000D01*
X64420000Y-81900000D02*
X62580000Y-81900000D01*
X64420000Y-85740000D02*
X64420000Y-81900000D01*
%TO.C,SW2*%
X100060000Y-77200000D02*
X104560000Y-77200000D01*
X98810000Y-73200000D02*
X98810000Y-74700000D01*
X105810000Y-74700000D02*
X105810000Y-73200000D01*
X104560000Y-70700000D02*
X100060000Y-70700000D01*
%TO.C,C3*%
X81251000Y-72190000D02*
X81251000Y-75160000D01*
X76480302Y-73485000D02*
X76480302Y-74285000D01*
X83451000Y-73374000D02*
X83451000Y-79026000D01*
X83651000Y-73596000D02*
X83651000Y-78804000D01*
X83731000Y-73695000D02*
X83731000Y-78705000D01*
X82211000Y-72496000D02*
X82211000Y-75160000D01*
X82331000Y-77240000D02*
X82331000Y-79847000D01*
X84451000Y-75102000D02*
X84451000Y-77298000D01*
X81691000Y-72298000D02*
X81691000Y-75160000D01*
X82011000Y-72410000D02*
X82011000Y-75160000D01*
X83011000Y-77240000D02*
X83011000Y-79420000D01*
X84091000Y-74236000D02*
X84091000Y-78164000D01*
X81971000Y-77240000D02*
X81971000Y-80005000D01*
X83851000Y-73855000D02*
X83851000Y-78545000D01*
X83011000Y-72980000D02*
X83011000Y-75160000D01*
X83171000Y-73110000D02*
X83171000Y-75160000D01*
X82491000Y-72638000D02*
X82491000Y-75160000D01*
X80610000Y-72121000D02*
X80610000Y-80279000D01*
X82411000Y-72594000D02*
X82411000Y-75160000D01*
X81571000Y-77240000D02*
X81571000Y-80136000D01*
X82131000Y-77240000D02*
X82131000Y-79940000D01*
X81851000Y-77240000D02*
X81851000Y-80050000D01*
X83051000Y-73011000D02*
X83051000Y-75160000D01*
X81691000Y-77240000D02*
X81691000Y-80102000D01*
X82331000Y-72553000D02*
X82331000Y-75160000D01*
X81931000Y-77240000D02*
X81931000Y-80021000D01*
X81411000Y-72224000D02*
X81411000Y-75160000D01*
X80930000Y-72143000D02*
X80930000Y-80257000D01*
X82171000Y-72478000D02*
X82171000Y-75160000D01*
X81411000Y-77240000D02*
X81411000Y-80176000D01*
X81531000Y-77240000D02*
X81531000Y-80147000D01*
X81571000Y-72264000D02*
X81571000Y-75160000D01*
X84251000Y-74555000D02*
X84251000Y-77845000D01*
X81130000Y-72170000D02*
X81130000Y-80230000D01*
X81771000Y-72323000D02*
X81771000Y-75160000D01*
X83931000Y-73972000D02*
X83931000Y-78428000D01*
X82651000Y-72731000D02*
X82651000Y-75160000D01*
X80650000Y-72123000D02*
X80650000Y-80277000D01*
X81491000Y-77240000D02*
X81491000Y-80157000D01*
X81451000Y-77240000D02*
X81451000Y-80167000D01*
X83291000Y-73217000D02*
X83291000Y-79183000D01*
X82291000Y-72534000D02*
X82291000Y-75160000D01*
X83211000Y-73145000D02*
X83211000Y-75160000D01*
X84131000Y-74310000D02*
X84131000Y-78090000D01*
X84371000Y-74854000D02*
X84371000Y-77546000D01*
X82451000Y-72616000D02*
X82451000Y-75160000D01*
X82771000Y-77240000D02*
X82771000Y-79592000D01*
X82051000Y-77240000D02*
X82051000Y-79974000D01*
X80690000Y-72124000D02*
X80690000Y-80276000D01*
X81651000Y-72286000D02*
X81651000Y-75160000D01*
X83131000Y-73076000D02*
X83131000Y-75160000D01*
X83211000Y-77240000D02*
X83211000Y-79255000D01*
X82091000Y-77240000D02*
X82091000Y-79957000D01*
X82611000Y-77240000D02*
X82611000Y-79693000D01*
X84571000Y-75667000D02*
X84571000Y-76733000D01*
X83331000Y-73255000D02*
X83331000Y-79145000D01*
X82531000Y-77240000D02*
X82531000Y-79740000D01*
X81251000Y-77240000D02*
X81251000Y-80210000D01*
X82371000Y-72573000D02*
X82371000Y-75160000D01*
X80530000Y-72120000D02*
X80530000Y-80280000D01*
X81291000Y-72198000D02*
X81291000Y-75160000D01*
X82211000Y-77240000D02*
X82211000Y-79904000D01*
X80570000Y-72120000D02*
X80570000Y-80280000D01*
X81851000Y-72350000D02*
X81851000Y-75160000D01*
X81211000Y-77240000D02*
X81211000Y-80217000D01*
X82131000Y-72460000D02*
X82131000Y-75160000D01*
X83611000Y-73549000D02*
X83611000Y-78851000D01*
X81811000Y-72337000D02*
X81811000Y-75160000D01*
X82291000Y-77240000D02*
X82291000Y-79866000D01*
X83091000Y-73044000D02*
X83091000Y-75160000D01*
X81651000Y-77240000D02*
X81651000Y-80114000D01*
X82091000Y-72443000D02*
X82091000Y-75160000D01*
X82931000Y-77240000D02*
X82931000Y-79480000D01*
X82171000Y-77240000D02*
X82171000Y-79922000D01*
X81451000Y-72233000D02*
X81451000Y-75160000D01*
X81291000Y-77240000D02*
X81291000Y-80202000D01*
X81331000Y-77240000D02*
X81331000Y-80194000D01*
X76080302Y-73885000D02*
X76880302Y-73885000D01*
X82611000Y-72707000D02*
X82611000Y-75160000D01*
X80970000Y-72148000D02*
X80970000Y-80252000D01*
X84411000Y-74971000D02*
X84411000Y-77429000D01*
X81891000Y-77240000D02*
X81891000Y-80035000D01*
X84291000Y-74648000D02*
X84291000Y-77752000D01*
X83131000Y-77240000D02*
X83131000Y-79324000D01*
X82891000Y-72891000D02*
X82891000Y-75160000D01*
X80850000Y-72135000D02*
X80850000Y-80265000D01*
X81211000Y-72183000D02*
X81211000Y-75160000D01*
X80770000Y-72129000D02*
X80770000Y-80271000D01*
X82851000Y-72862000D02*
X82851000Y-75160000D01*
X83971000Y-74034000D02*
X83971000Y-78366000D01*
X82011000Y-77240000D02*
X82011000Y-79990000D01*
X81331000Y-72206000D02*
X81331000Y-75160000D01*
X82771000Y-72808000D02*
X82771000Y-75160000D01*
X84011000Y-74098000D02*
X84011000Y-78302000D01*
X82371000Y-77240000D02*
X82371000Y-79827000D01*
X82691000Y-72756000D02*
X82691000Y-75160000D01*
X82691000Y-77240000D02*
X82691000Y-79644000D01*
X81531000Y-72253000D02*
X81531000Y-75160000D01*
X82971000Y-77240000D02*
X82971000Y-79450000D01*
X84171000Y-74387000D02*
X84171000Y-78013000D01*
X82731000Y-72782000D02*
X82731000Y-75160000D01*
X83371000Y-73293000D02*
X83371000Y-79107000D01*
X82811000Y-72835000D02*
X82811000Y-75160000D01*
X81891000Y-72365000D02*
X81891000Y-75160000D01*
X83491000Y-73416000D02*
X83491000Y-78984000D01*
X81811000Y-77240000D02*
X81811000Y-80063000D01*
X82531000Y-72660000D02*
X82531000Y-75160000D01*
X84491000Y-75252000D02*
X84491000Y-77148000D01*
X82891000Y-77240000D02*
X82891000Y-79509000D01*
X81050000Y-72158000D02*
X81050000Y-80242000D01*
X82931000Y-72920000D02*
X82931000Y-75160000D01*
X80810000Y-72132000D02*
X80810000Y-80268000D01*
X81010000Y-72152000D02*
X81010000Y-80248000D01*
X81170000Y-72176000D02*
X81170000Y-80224000D01*
X81371000Y-77240000D02*
X81371000Y-80185000D01*
X82651000Y-77240000D02*
X82651000Y-79669000D01*
X84051000Y-74166000D02*
X84051000Y-78234000D01*
X80490000Y-72120000D02*
X80490000Y-80280000D01*
X80730000Y-72126000D02*
X80730000Y-80274000D01*
X83091000Y-77240000D02*
X83091000Y-79356000D01*
X83571000Y-73503000D02*
X83571000Y-78897000D01*
X83251000Y-77240000D02*
X83251000Y-79219000D01*
X81611000Y-77240000D02*
X81611000Y-80125000D01*
X81971000Y-72395000D02*
X81971000Y-75160000D01*
X82731000Y-77240000D02*
X82731000Y-79618000D01*
X81611000Y-72275000D02*
X81611000Y-75160000D01*
X83411000Y-73333000D02*
X83411000Y-79067000D01*
X84331000Y-74747000D02*
X84331000Y-77653000D01*
X83051000Y-77240000D02*
X83051000Y-79389000D01*
X83811000Y-73800000D02*
X83811000Y-78600000D01*
X81931000Y-72379000D02*
X81931000Y-75160000D01*
X82251000Y-72514000D02*
X82251000Y-75160000D01*
X81731000Y-77240000D02*
X81731000Y-80089000D01*
X81090000Y-72163000D02*
X81090000Y-80237000D01*
X83171000Y-77240000D02*
X83171000Y-79290000D01*
X83531000Y-73459000D02*
X83531000Y-78941000D01*
X82811000Y-77240000D02*
X82811000Y-79565000D01*
X84531000Y-75432000D02*
X84531000Y-76968000D01*
X83691000Y-73644000D02*
X83691000Y-78756000D01*
X82451000Y-77240000D02*
X82451000Y-79784000D01*
X82851000Y-77240000D02*
X82851000Y-79538000D01*
X82251000Y-77240000D02*
X82251000Y-79886000D01*
X83891000Y-73913000D02*
X83891000Y-78487000D01*
X82491000Y-77240000D02*
X82491000Y-79762000D01*
X84211000Y-74469000D02*
X84211000Y-77931000D01*
X81731000Y-72311000D02*
X81731000Y-75160000D01*
X82571000Y-77240000D02*
X82571000Y-79717000D01*
X82971000Y-72950000D02*
X82971000Y-75160000D01*
X82411000Y-77240000D02*
X82411000Y-79806000D01*
X81371000Y-72215000D02*
X81371000Y-75160000D01*
X83771000Y-73746000D02*
X83771000Y-78654000D01*
X82571000Y-72683000D02*
X82571000Y-75160000D01*
X80890000Y-72139000D02*
X80890000Y-80261000D01*
X83251000Y-73181000D02*
X83251000Y-75160000D01*
X81491000Y-72243000D02*
X81491000Y-75160000D01*
X82051000Y-72426000D02*
X82051000Y-75160000D01*
X81771000Y-77240000D02*
X81771000Y-80077000D01*
X84610000Y-76200000D02*
G75*
G03*
X84610000Y-76200000I-4120000J0D01*
G01*
%TO.C,R7*%
X77820000Y-67960000D02*
X79660000Y-67960000D01*
X79660000Y-67960000D02*
X79660000Y-64120000D01*
X78740000Y-63170000D02*
X78740000Y-64120000D01*
X77820000Y-64120000D02*
X77820000Y-67960000D01*
X78740000Y-68910000D02*
X78740000Y-67960000D01*
X79660000Y-64120000D02*
X77820000Y-64120000D01*
%TD*%
M02*
